<svg width="4606" height="2090" viewBox="0 0 4606 2090" fill="none" xmlns="http://www.w3.org/2000/svg">
<path d="M4579.71 1475.3C3063.39 1475.3 1548.52 1475.3 33.6523 1475.25C31.4323 1475.25 29.2123 1474.54 25.8723 1473.97C25.8723 1460.42 25.7723 1447.19 25.9323 1433.96C25.9823 1429.87 28.7723 1428.25 32.6523 1428.26C37.2623 1428.28 41.8723 1428.26 47.1223 1428.26V679.038C44.7023 678.738 42.1923 678.188 39.6823 678.148C31.6823 678.028 23.6723 678.278 15.6823 677.998C12.0923 677.878 8.28229 677.428 5.00229 676.088C-0.607712 673.798 -1.67771 669.388 2.70229 665.168C10.1323 658.028 18.0523 651.368 26.0323 644.828C34.2223 638.118 34.7023 637.688 31.4023 627.178C26.7823 612.468 26.8623 597.728 30.3123 582.858C35.1223 562.118 43.7823 543.228 57.2723 526.638C60.6023 522.538 63.8523 518.368 67.0223 514.378C61.9023 507.948 57.0723 502.038 52.4523 495.968C50.8523 493.868 49.5423 491.468 48.5523 489.018C46.1123 483.038 47.6823 479.748 53.8823 477.478C55.3923 476.928 57.0423 476.788 58.9023 476.398C52.3323 461.448 52.5823 446.238 54.2023 430.898C54.7223 425.938 54.8523 420.878 56.0423 416.088C56.6723 413.558 58.8023 410.268 60.9723 409.578C63.1723 408.888 66.7623 410.348 68.8323 411.998C72.0723 414.608 74.5523 418.168 78.0823 422.158C91.5123 386.838 118.472 365.228 146.652 344.798C155.812 338.158 165.462 332.188 174.852 325.858C186.982 317.688 195.682 306.628 202.422 293.608C200.252 290.688 198.112 288.148 196.342 285.388C189.802 275.168 190.262 265.218 198.152 255.928C201.352 252.158 205.112 248.638 209.212 245.918C214.862 242.178 217.102 237.218 217.092 230.778C217.082 226.118 217.222 221.458 217.162 216.798C217.092 210.988 218.992 206.418 224.842 203.868C230.742 205.868 232.572 210.678 232.922 216.258C233.212 220.908 233.262 225.588 233.052 230.238C232.742 237.128 234.842 242.438 241.062 246.188C244.432 248.218 247.392 251.098 250.102 254.008C259.872 264.488 260.472 275.908 252.072 287.498C250.712 289.368 249.172 291.108 247.372 293.338C253.632 305.978 262.132 316.768 273.702 324.998C289.712 336.378 306.302 346.988 321.792 359.028C343.002 375.508 361.652 394.438 371.552 422.188C374.932 418.518 377.562 415.848 379.972 412.988C382.262 410.268 384.842 408.308 388.562 409.168C392.442 410.068 393.372 413.048 393.812 416.668C397.162 444.138 398.842 454.448 391.332 476.218C392.842 476.628 394.352 476.908 395.762 477.438C402.252 479.858 404.222 483.608 400.922 489.748C397.802 495.558 393.572 500.798 389.622 506.138C387.672 508.778 385.252 511.068 382.622 513.988C386.872 519.408 391.072 524.498 394.982 529.798C411.812 552.638 422.202 577.828 421.602 606.618C421.462 613.508 419.932 620.448 418.322 627.198C415.892 637.418 416.152 638.498 424.032 644.948C431.502 651.058 438.962 657.238 445.932 663.898C451.922 669.618 450.552 674.608 442.612 676.908C439.172 677.898 435.402 677.998 431.772 678.048C422.182 678.198 412.582 678.098 402.382 678.098V797.288H1580.55V712.068C1570.79 712.068 1561.57 712.138 1552.35 712.038C1548.71 711.998 1544.96 712.058 1541.45 711.238C1532.32 709.108 1530.81 703.848 1537.41 697.298C1541.66 693.078 1546.25 689.198 1550.84 685.338C1555.42 681.478 1560.19 677.838 1565.89 673.288C1565.49 669.818 1565.63 665.438 1564.43 661.458C1559.48 644.988 1560.18 628.618 1564.47 612.208C1569.34 593.608 1577.45 576.618 1589.53 561.578C1593.06 557.188 1596.47 552.718 1600.04 548.148C1595.35 542.468 1590.82 537.188 1586.55 531.698C1584.72 529.348 1583.18 526.698 1581.96 523.988C1578.86 517.108 1580.49 513.758 1587.82 511.288C1589.02 510.888 1590.25 510.598 1591.81 510.168C1582.9 489.798 1586.68 469.298 1589.34 448.918C1590.17 442.548 1596.44 440.838 1601.29 445.358C1604.42 448.278 1607.03 451.738 1610.29 455.428C1611.45 453.978 1612.5 453.158 1612.9 452.088C1619.73 433.848 1631.75 419.328 1645.68 406.148C1663.19 389.588 1682.94 376.008 1703.09 362.948C1718.54 352.938 1725.69 345.068 1735.45 327.628C1733.85 325.528 1732 323.268 1730.32 320.878C1722.72 310.048 1723.13 298.758 1731.94 288.928C1735.24 285.248 1739.17 282.008 1743.21 279.118C1747.7 275.908 1749.82 271.898 1749.74 266.458C1749.66 261.128 1749.65 255.798 1749.92 250.478C1750.27 243.788 1751.33 242.378 1758.17 237.878C1763.23 240.028 1765.55 244.048 1765.65 249.508C1765.73 254.168 1765.83 258.838 1765.73 263.488C1765.57 270.648 1767.69 276.418 1774.27 280.298C1777.37 282.128 1780.07 284.788 1782.6 287.418C1793.03 298.268 1793.75 309.368 1784.96 321.598C1783.62 323.468 1782.12 325.228 1780.42 327.378C1786.78 340.188 1795.4 350.898 1806.95 359.148C1823.74 371.148 1841.08 382.428 1857.33 395.118C1877.72 411.048 1895.21 429.688 1904.57 456.228C1908.38 452.018 1911.22 448.438 1914.51 445.348C1919.27 440.878 1925.97 442.508 1926.65 448.768C1928.37 464.568 1931.77 480.398 1928.17 496.368C1927.15 500.898 1925.79 505.348 1924.46 510.338C1925.72 510.628 1927.29 510.828 1928.74 511.368C1935.44 513.838 1937.26 517.328 1933.9 523.568C1930.77 529.378 1926.63 534.658 1922.7 540.008C1920.75 542.658 1918.29 544.938 1915.58 547.908C1919.35 552.668 1923.01 557.308 1926.68 561.948C1942.61 582.048 1951.62 605.038 1954.82 630.308C1956.18 640.998 1954.36 651.508 1951.25 661.818C1948.34 671.468 1948.83 672.268 1956.64 678.598C1963.89 684.468 1970.99 690.518 1977.95 696.718C1980.57 699.048 1984.59 701.878 1982.1 705.768C1980.38 708.448 1976.58 710.218 1973.35 711.388C1970.66 712.358 1967.44 711.978 1964.45 711.998C1955.16 712.058 1945.86 712.018 1935.84 712.018V796.928C1940.45 794.558 1941.67 790.158 1944.4 787.198C1954.95 775.778 1959.31 762.468 1957.19 747.008C1956.79 744.118 1957.13 741.128 1957.13 736.998H2010.61V612.308H1986.42C1985.42 597.458 1985.54 583.738 1986.31 569.178H2051.75C2051.97 568.668 2052.2 568.158 2052.42 567.638C2050.52 566.148 2048.71 564.528 2046.71 563.208C2029.55 551.908 2016.81 537.008 2008.62 518.068C2005.61 511.118 2000.54 505.018 1997.8 497.988C1988.22 473.348 1983.32 447.708 1980.9 421.328C1977.41 383.218 1983.97 346.508 1993.42 309.978C1994.48 305.888 1995.97 301.398 2000.6 301.778C2004.07 302.068 2008.39 304.398 2010.39 307.208C2013.6 311.718 2015.68 317.208 2017.4 322.558C2021.68 335.848 2025.48 349.288 2029.49 362.678C2030.05 364.548 2030.64 366.398 2031.47 369.058C2032.95 367.958 2034.06 367.438 2034.76 366.578C2053.24 343.928 2075.11 324.938 2099.2 308.628C2122.91 292.578 2147.26 277.478 2171.32 261.938C2180.55 255.978 2189.61 249.738 2199 244.048C2204.15 240.928 2206.34 237.068 2205.89 231.028C2205.42 224.768 2205.79 218.438 2205.79 211.358C2215.02 212.278 2219.03 206.328 2222.72 199.948C2226.54 193.338 2230.8 186.938 2234.05 180.058C2237.07 173.658 2236.11 171.948 2230.33 167.528C2228.22 165.918 2225.96 164.408 2224.19 162.468C2218.36 156.108 2217.55 148.668 2222.19 141.428C2225.41 136.388 2229.3 131.778 2232.8 126.918C2240.05 116.858 2245.7 106.018 2248.94 92.9677C2243.18 87.8577 2237.42 82.3877 2231.28 77.4077C2222 69.8777 2221.17 68.2277 2226.64 57.2777C2231.39 47.7677 2236.98 38.6777 2242.21 29.4077C2245.47 23.6177 2248.79 17.8577 2252.03 12.0477C2256.47 4.07774 2263.47 3.28774 2269.67 10.1577C2272.3 13.0777 2274.81 16.1077 2277.84 19.6277C2281.17 16.7177 2284.02 14.5077 2286.54 11.9777C2302.06 -3.61226 2303.38 -4.26226 2319 11.6677C2320.86 13.5677 2322.91 15.2877 2324.95 17.0077C2325.69 17.6377 2326.64 18.0177 2328.43 19.0477C2331.3 15.7677 2334.13 12.2477 2337.27 9.01774C2342.06 4.07774 2349.27 4.24774 2352.62 9.92774C2361.73 25.3977 2370.75 40.9477 2379.09 56.8377C2385.05 68.1977 2384.11 69.7077 2374.24 77.6977C2368.33 82.4877 2362.8 87.7377 2357.08 92.8077C2359.64 104.718 2364.82 114.688 2371.18 124.088C2374.72 129.328 2378.81 134.188 2382.41 139.388C2389.26 149.318 2387.91 157.928 2378.48 165.548C2377.45 166.378 2376.33 167.138 2375.17 167.778C2370.12 170.558 2368.96 174.778 2371.57 179.558C2375.86 187.418 2380.79 194.928 2385.13 202.768C2388.08 208.088 2391.5 212.158 2399.47 210.448C2399.59 218.048 2400.1 224.908 2399.68 231.708C2399.36 237.048 2401.26 240.368 2405.67 243.138C2419.21 251.628 2432.66 260.258 2446 269.048C2470.47 285.168 2495.15 300.988 2519.15 317.788C2538.03 331.008 2554.73 346.878 2569.48 364.668C2570.72 366.168 2571.49 368.058 2572.48 369.768C2573.15 369.338 2573.82 368.908 2574.5 368.478C2578.13 356.218 2581.57 343.888 2585.46 331.708C2587.78 324.438 2590.53 317.268 2593.67 310.308C2594.96 307.458 2597.37 304.698 2599.98 302.948C2604.67 299.808 2609 301.438 2611.39 306.518C2611.81 307.408 2612 308.418 2612.26 309.378C2619.27 335.778 2624.96 362.398 2625.78 389.848C2626.89 426.508 2622.71 462.628 2608.43 496.428C2596.94 523.628 2583.28 550.348 2555.46 565.608C2554.63 566.068 2553.83 566.588 2553.62 568.598H2619.2C2620.27 583.168 2619.78 596.938 2619.5 611.868H2595.74V736.648H2649.09C2649.09 746.008 2649.26 754.228 2649.02 762.448C2648.89 766.988 2649.98 770.838 2652.69 774.518C2658.13 781.908 2663.28 789.518 2669.05 797.738C2671.55 789.668 2672.03 725.038 2669.85 712.028C2660.9 712.028 2651.69 712.158 2642.48 711.968C2638.19 711.878 2633.72 711.838 2629.67 710.638C2622.41 708.478 2621.15 703.388 2626.71 698.088C2633.93 691.208 2641.34 684.358 2649.46 678.628C2655.83 674.138 2656.56 669.138 2655.03 662.398C2653.42 655.308 2651.49 648.098 2651.31 640.898C2650.57 612.108 2660.89 586.888 2677.69 564.008C2681.62 558.658 2685.86 553.538 2690.1 548.128C2685.45 542.498 2680.92 537.228 2676.64 531.748C2674.81 529.408 2673.27 526.748 2672.04 524.038C2668.91 517.168 2670.54 513.718 2677.76 511.258C2678.95 510.848 2680.21 510.608 2681.85 510.188C2672.94 489.828 2676.7 469.348 2679.36 448.978C2680.2 442.548 2686.38 440.768 2691.25 445.258C2694.39 448.158 2697 451.638 2700.28 455.348C2701.43 453.968 2702.51 453.178 2702.9 452.138C2709.98 433.228 2722.59 418.358 2737.11 404.818C2754.25 388.838 2773.27 375.358 2793.11 363.068C2807.14 354.378 2817.32 342.508 2825.53 327.818C2824.07 325.848 2822.54 323.778 2821.02 321.708C2812.27 309.758 2812.92 298.188 2823.23 287.478C2826.21 284.378 2829.6 281.578 2833.14 279.128C2837.68 275.998 2839.85 271.988 2839.76 266.518C2839.68 261.188 2839.67 255.858 2839.94 250.538C2840.28 243.828 2841.29 242.458 2848.15 237.808C2853.61 240.138 2855.74 244.558 2855.69 250.368C2855.68 252.028 2855.89 253.718 2855.69 255.358C2854.22 267.608 2858.19 276.388 2868.69 284.178C2884.23 295.708 2884.81 308.648 2873.16 323.828C2872.36 324.868 2871.58 325.908 2870.48 327.358C2876.9 340.398 2885.84 351.168 2897.7 359.618C2915.58 372.368 2933.82 384.678 2951.05 398.278C2970.08 413.298 2985.77 431.358 2994.57 456.158C2998.31 452.038 3001.16 448.488 3004.44 445.398C3009.19 440.908 3015.94 442.448 3016.63 448.658C3018.38 464.448 3021.75 480.278 3018.2 496.258C3017.19 500.788 3015.83 505.248 3014.49 510.288C3015.7 510.588 3017.23 510.808 3018.65 511.328C3025.39 513.768 3027.24 517.238 3023.95 523.478C3021.03 529.028 3017.15 534.098 3013.41 539.168C3011.26 542.088 3008.56 544.608 3005.58 547.888C3008.69 551.818 3011.68 555.698 3014.76 559.508C3030.64 579.098 3040.4 601.278 3044.16 626.278C3045.94 638.108 3044.76 649.448 3041.51 660.748C3038.32 671.838 3038.46 671.928 3047.36 679.128C3054.61 684.988 3061.81 690.958 3068.56 697.368C3075.32 703.788 3073.67 708.978 3064.45 711.178C3061.26 711.938 3057.86 711.938 3054.55 711.978C3045.25 712.078 3035.94 712.008 3025.34 712.008C3024.89 740.718 3025.16 768.778 3025.15 797.358H4203.27V678.038C4192.97 678.038 4183.09 678.188 4173.22 677.968C4169.28 677.878 4165.13 677.588 4161.48 676.258C4155.38 674.038 4154.28 669.318 4159.05 664.768C4166.5 657.648 4174.46 651.038 4182.44 644.488C4190.01 638.268 4190.8 637.488 4187.83 628.598C4181.79 610.468 4183.31 592.578 4188.42 574.618C4194.18 554.408 4204.34 536.648 4217.94 520.748C4219.66 518.728 4221.19 516.548 4223.05 514.118C4218.58 508.738 4214.07 503.498 4209.82 498.058C4207.99 495.718 4206.52 493.038 4205.24 490.348C4201.72 482.988 4203.3 479.738 4211.36 477.218C4212.29 476.928 4213.25 476.728 4214.85 476.318C4206.02 456.688 4209.76 436.558 4212.01 416.548C4212.29 414.028 4214.36 410.918 4216.53 409.588C4219.67 407.658 4222.9 409.388 4225.29 412.198C4227.83 415.188 4230.42 418.128 4232.86 420.948C4234.12 420.288 4234.95 420.138 4235.1 419.738C4242.61 399.928 4255.64 384.188 4271.03 370.008C4288.51 353.898 4308.11 340.698 4327.93 327.768C4341.65 318.808 4350.21 309.178 4358.26 293.558C4356.48 291.098 4354.45 288.518 4352.65 285.788C4345.73 275.248 4346.18 265.068 4354.47 255.518C4357.71 251.788 4361.54 248.378 4365.63 245.608C4370.91 242.038 4373.03 237.298 4373.09 231.268C4373.14 226.278 4373.23 221.278 4373.19 216.288C4373.14 210.818 4375.17 206.608 4380.55 203.888C4386.61 205.358 4388.39 210.278 4388.89 215.728C4389.34 220.688 4389.29 225.718 4389.07 230.698C4388.79 237.258 4390.89 242.238 4396.67 245.848C4400.02 247.938 4403.03 250.728 4405.77 253.608C4416.02 264.358 4416.63 275.878 4407.8 287.848C4406.44 289.688 4404.93 291.418 4403.31 293.428C4410.39 306.768 4419.45 317.818 4431.73 326.448C4450.24 339.458 4468.83 352.428 4486.54 366.478C4504.22 380.498 4518.41 397.668 4526.53 419.188C4526.74 419.738 4527.45 420.098 4528.64 421.218C4530.99 418.618 4533.46 416.098 4535.69 413.368C4538.16 410.338 4540.88 408.058 4545.06 409.278C4548.95 410.408 4549.52 413.598 4549.87 417.128C4551.25 430.958 4554.4 444.708 4551.73 458.698C4550.62 464.518 4549.22 470.278 4547.89 476.308C4548.52 476.538 4549.4 476.908 4550.31 477.198C4558.72 479.838 4560.63 483.478 4556.27 491.028C4552.81 497.028 4548.21 502.388 4544.01 507.958C4542.63 509.788 4540.91 511.378 4538.6 513.868C4541.45 517.498 4544.16 521.128 4547.05 524.618C4561.75 542.428 4571.44 562.588 4575.98 585.258C4578.77 599.218 4578.65 612.988 4574.66 626.718C4571.53 637.488 4572.03 638.358 4580.47 645.208C4587.45 650.868 4594.25 656.778 4600.96 662.748C4603.64 665.138 4607.42 668.088 4605 671.888C4603.29 674.568 4599.5 676.648 4596.25 677.458C4592.15 678.478 4587.65 678.018 4583.33 678.048C4575.37 678.108 4567.41 678.068 4559.7 678.068C4557.38 685.878 4556.9 1416.44 4559.14 1428.22C4563.54 1428.22 4568.14 1428.28 4572.73 1428.2C4577.1 1428.12 4579.76 1429.77 4579.76 1434.51C4579.75 1447.44 4579.76 1460.37 4579.76 1475.26L4579.71 1475.3ZM4544.57 678.828H4218.07C4215.94 694.768 4216.7 1420.87 4218.71 1427.61H4544.57V678.828ZM388.552 1427.69V679.538C378.892 677.418 69.8723 677.608 61.5823 679.698V1427.69H388.552ZM1921.36 712.748H1594.3V1427.61H1838.29V1393.34H1919.38C1923.91 1305.1 1921.24 1217.98 1921.68 1130.89C1922.12 1043.47 1921.78 956.038 1921.78 867.578H1890.42V825.418C1891.65 824.868 1892.25 824.388 1892.85 824.378C1898.84 824.238 1904.84 824.178 1910.83 824.088C1920.96 823.928 1921.73 823.298 1921.76 813.268C1921.83 781.968 1921.79 750.678 1921.76 719.378C1921.76 717.438 1921.54 715.488 1921.37 712.758L1921.36 712.748ZM2683.75 867.968V881.748C2683.75 1031.58 2683.66 1181.42 2683.85 1331.25C2683.87 1351.12 2685.28 1370.99 2686.1 1390.85C2686.12 1391.39 2686.75 1391.91 2687.88 1393.64H2767.66V1427.56H3011.15V713.198C2996.72 710.858 2691.3 711.658 2683.77 714.188C2683.77 747.858 2683.69 781.778 2683.84 815.688C2683.87 822.308 2685.65 823.818 2692.32 824.008C2699.85 824.228 2707.39 824.058 2715.12 824.058V867.958H2683.74L2683.75 867.968ZM2363.62 569.098H2376.44C2416.76 569.098 2457.09 568.928 2497.41 569.228C2506.92 569.298 2516 567.968 2524.82 564.838C2556.88 553.448 2580 533.178 2589.16 499.328C2594.65 479.048 2594.81 458.668 2590.59 438.088C2584.36 407.688 2568.68 382.688 2547.37 360.748C2528.94 341.768 2508.22 325.568 2486.11 311.208C2456.51 291.988 2426.61 273.218 2396.68 254.518C2393.54 252.558 2389.26 251.548 2385.51 251.528C2330.52 251.338 2275.54 251.448 2220.55 251.318C2215.62 251.308 2211.63 252.678 2207.55 255.308C2192.71 264.868 2177.56 273.918 2162.76 283.538C2141.27 297.518 2119.66 311.348 2098.72 326.108C2077.41 341.128 2058.2 358.648 2042.34 379.518C2019.4 409.688 2009.19 443.608 2013.33 481.408C2017.44 518.968 2036.6 545.868 2071.5 561.038C2081.57 565.418 2091.86 569.148 2103.17 569.118C2146.49 569.028 2189.81 569.088 2233.14 569.068C2235.64 569.068 2238.14 568.838 2242 568.638C2231.23 553.878 2231.86 538.288 2234.27 522.738C2235.48 514.928 2238.2 507.278 2240.88 499.788C2249.18 476.608 2263.13 456.758 2278.03 437.438C2284.51 429.038 2290.35 420.138 2296.27 411.318C2300.31 405.308 2305.51 405.268 2309.5 411.248C2315.02 419.528 2320.73 427.698 2326.48 435.828C2333.97 446.428 2342 456.668 2349.04 467.558C2358.86 482.728 2366.16 499.158 2370.37 516.788C2374.56 534.328 2375.58 551.638 2363.62 569.078V569.098ZM402.312 949.278H1580.55V842.608H402.312V949.278ZM3025.67 948.988C3040.87 950.968 4195.39 950.298 4203.17 948.388V842.498H3025.67V948.988ZM4566.57 1442.02H39.5923V1461.67H4566.57V1442.02ZM2580.6 612.908H2025.48V736.358H2580.6V612.908ZM1757.76 666.998C1813.06 666.998 1868.36 666.998 1923.66 666.998C1933.92 666.998 1935.49 665.958 1938.58 656.258C1941.77 646.258 1942.13 636.068 1940.31 625.728C1936.3 602.878 1926.28 583.008 1911.65 565.078C1907.03 559.418 1902.57 556.878 1895.03 556.908C1803.75 557.198 1712.48 557.098 1621.2 557.098C1619.2 557.098 1617.1 556.708 1615.23 557.208C1612.84 557.848 1610 558.628 1608.46 560.338C1592.07 578.458 1580.45 599.178 1575.92 623.368C1573.89 634.208 1573.69 645.168 1577.22 655.888C1580.63 666.238 1581.68 666.998 1592.86 666.998C1647.83 666.998 1702.79 666.998 1757.76 666.998ZM224.552 633.028C280.182 633.028 335.822 633.038 391.452 633.018C400.702 633.018 402.172 632.078 405.182 623.388C409.332 611.428 409.032 599.208 406.422 587.008C401.882 565.738 391.912 547.238 378.142 530.448C373.682 525.008 369.222 522.938 362.202 522.958C275.252 523.198 188.312 523.118 101.362 523.118C95.3623 523.118 89.3623 523.258 83.3723 523.068C79.7823 522.958 77.2123 524.008 74.7623 526.848C60.4023 543.468 49.4723 561.878 44.2023 583.368C41.0623 596.158 40.0723 608.958 44.0723 621.758C47.2323 631.848 48.8823 633.008 59.6423 633.018C114.612 633.018 169.572 633.018 224.542 633.018L224.552 633.028ZM4380.4 633.028C4436.03 633.028 4491.67 633.028 4547.3 633.028C4556.74 633.028 4558.1 632.178 4561.14 623.548C4565.35 611.598 4565.06 599.368 4562.47 587.178C4557.96 565.908 4548.03 547.378 4534.25 530.588C4529.8 525.168 4525.43 522.948 4518.37 522.968C4437.42 523.218 4356.47 523.128 4275.52 523.128C4263.53 523.128 4251.53 523.208 4239.54 523.088C4236.01 523.058 4233.36 523.878 4230.87 526.748C4216.51 543.368 4205.56 561.748 4200.25 583.238C4197.09 596.028 4196.09 608.828 4200.03 621.628C4203.17 631.798 4204.87 633.028 4215.5 633.028C4270.47 633.038 4325.43 633.028 4380.4 633.028ZM2847.38 666.998C2902.68 666.998 2957.98 666.998 3013.28 666.998C3023.99 666.998 3025.7 665.818 3028.79 655.678C3031.75 645.978 3032.15 636.088 3030.41 626.098C3026.42 603.268 3016.53 583.338 3001.91 565.378C2997.06 559.418 2992.25 556.888 2984.43 556.908C2893.49 557.188 2802.54 557.088 2711.6 557.088C2709.6 557.088 2707.47 556.648 2705.64 557.198C2702.98 557.998 2699.83 558.878 2698.1 560.808C2682.46 578.178 2671.23 597.958 2666.43 621.038C2664.04 632.558 2663.57 644.108 2667.15 655.508C2670.48 666.128 2671.69 666.988 2682.49 666.998C2737.46 667.008 2792.42 666.998 2847.39 666.998H2847.38ZM2197.14 1358.8C2197.14 1354.44 2197.14 1350.85 2197.14 1347.27C2197.14 1316.3 2197.14 1285.34 2197.14 1254.37C2197.14 1251.71 2197.09 1249.04 2197.21 1246.38C2197.42 1241.53 2199.26 1238.05 2204.73 1237.56C2206.29 1237.42 2207.8 1236.78 2209.12 1236.42V868.608H2139.63V1236.25C2151.21 1239.76 2151.67 1240.32 2151.68 1252.54C2151.71 1284.17 2151.69 1315.81 2151.68 1347.44C2151.68 1351 2151.68 1354.56 2151.68 1358.81H2197.13L2197.14 1358.8ZM2395.67 868.478V1236.1C2407.54 1240.06 2407.68 1240.21 2407.69 1253.2C2407.71 1284.5 2407.69 1315.8 2407.69 1347.1V1357.71C2419.36 1360.48 2445.13 1360.24 2453.14 1357.3C2453.14 1353.87 2453.14 1350.23 2453.14 1346.58C2453.14 1315.61 2453.14 1284.65 2453.14 1253.68C2453.14 1250.69 2453.08 1247.67 2453.38 1244.7C2453.74 1241.08 2455.55 1238.47 2459.41 1237.75C2461.31 1237.4 2463.2 1236.99 2465.21 1236.59V868.468H2395.65L2395.67 868.478ZM1936.32 823.318H2669.44C2661.85 812.248 2654.6 802.748 2648.58 792.528C2643.8 784.418 2638 781.678 2628.46 781.698C2411.47 781.998 2194.48 781.928 1977.5 781.928C1974.5 781.928 1971.43 781.588 1968.53 782.128C1966.46 782.518 1963.92 783.618 1962.76 785.238C1954.1 797.368 1945.72 809.708 1936.33 823.328L1936.32 823.318ZM2270.21 1236.16C2282.11 1239.74 2282.85 1240.71 2283 1252.26C2283.03 1254.26 2283 1256.25 2283 1258.25C2283 1288.2 2282.98 1318.15 2283.02 1348.1C2283.02 1351.6 2283.36 1355.1 2283.56 1358.97C2296.8 1359.59 2308.94 1359.76 2321.82 1359.07V1347C2321.82 1315.05 2321.82 1283.11 2321.82 1251.16C2321.82 1246.51 2321.33 1241.42 2326.12 1238.68C2328.56 1237.28 2331.7 1237.12 2334.49 1236.42V869.148C2323.53 867.128 2277.91 867.508 2270.2 869.678V1236.16H2270.21ZM2526.39 868.488V1236.03C2538.53 1240.03 2538.95 1240.63 2539.01 1253.93C2539.01 1255.59 2539.01 1257.26 2539.01 1258.93C2539.01 1288.57 2539.01 1318.2 2539.01 1347.84V1359.58C2549.02 1359.58 2557.63 1359.63 2566.24 1359.54C2568.49 1359.52 2570.74 1359.04 2573.88 1358.66V1347.47C2573.88 1316.5 2573.87 1285.53 2573.88 1254.56C2573.88 1240.65 2574 1240.52 2586.37 1235.9V868.488H2526.39ZM2889.36 510.298C2890.67 510.618 2891.63 511.048 2892.59 511.048C2915.91 511.108 2939.24 511.068 2962.56 511.188C2968.59 511.218 2972.76 508.028 2975.74 503.508C2978.07 499.968 2979.82 495.848 2980.96 491.738C2985.56 475.178 2983.79 459.108 2974.1 444.898C2967.21 434.798 2959.31 425.178 2950.68 416.528C2931.75 397.548 2909.08 383.338 2886.54 369.138C2883.43 367.178 2879.04 366.608 2875.22 366.538C2859.56 366.258 2843.88 366.898 2828.25 366.248C2817.76 365.808 2809.12 368.628 2800.42 374.508C2779.43 388.708 2758.45 402.828 2740.48 420.878C2730.53 430.868 2721.91 441.808 2716.62 455.018C2711.03 468.978 2711.74 483.098 2716.63 496.978C2720.36 507.568 2726.28 511.148 2737.84 511.158C2757.83 511.178 2777.82 511.178 2797.81 511.138C2800.64 511.138 2803.47 510.808 2804.87 510.728C2805.08 502.408 2803.94 494.618 2805.71 487.568C2810.72 467.618 2824.7 454.388 2841.83 444.308C2846.31 441.668 2851.62 442.158 2856.02 445.398C2861.91 449.738 2868.3 453.688 2873.23 458.968C2886.66 473.338 2896.3 489.318 2889.36 510.308V510.298ZM4340.06 477.178C4335.52 465.388 4336.93 455.158 4341.52 445.068C4348.42 429.898 4360.08 419.248 4373.97 410.798C4378.88 407.808 4384.32 408.048 4389.02 411.468C4395.2 415.968 4401.83 420.188 4406.93 425.748C4419.95 439.948 4429.21 455.758 4422.18 477.198C4425.89 477.198 4429.11 477.198 4432.34 477.198C4451.67 477.198 4470.99 477.208 4490.32 477.198C4503.54 477.198 4509.79 472.698 4513.36 459.958C4517.94 443.608 4517.03 427.768 4508.38 412.688C4501.68 401.008 4492.95 391.068 4483.23 381.858C4464.02 363.648 4441.91 349.358 4419.72 335.238C4416.85 333.418 4412.88 332.628 4409.4 332.588C4390.41 332.338 4371.42 332.368 4352.43 332.568C4349.25 332.598 4345.59 333.138 4342.99 334.778C4318.17 350.398 4293.65 366.468 4272.9 387.498C4263.72 396.808 4255.81 407.038 4250.42 419.048C4243.78 433.868 4244.34 448.868 4249.93 463.708C4252.59 470.778 4257.11 476.998 4265.62 477.098C4289.91 477.368 4314.21 477.188 4340.08 477.188L4340.06 477.178ZM266.192 477.198C289.642 477.198 311.952 477.198 334.252 477.198C347.502 477.198 353.762 472.728 357.332 460.008C361.922 443.668 361.032 427.818 352.402 412.728C345.712 401.038 336.982 391.098 327.262 381.888C308.052 363.668 285.952 349.388 263.762 335.258C260.892 333.428 256.922 332.628 253.452 332.578C234.462 332.328 215.472 332.358 196.482 332.558C193.302 332.588 189.632 333.098 187.032 334.738C162.212 350.358 137.682 366.428 116.932 387.448C107.752 396.748 99.8423 406.978 94.4423 418.988C87.9323 433.448 88.3423 448.118 93.5323 462.728C97.3323 473.428 103.182 477.188 114.552 477.198C134.542 477.218 154.532 477.218 174.522 477.178C177.422 477.178 180.322 476.908 183.882 476.738C179.552 465.458 180.912 455.238 185.502 445.128C192.392 429.948 204.042 419.298 217.922 410.828C222.842 407.828 228.262 408.028 232.972 411.438C239.162 415.918 245.782 420.148 250.892 425.698C263.942 439.878 273.112 455.708 266.202 477.198H266.192ZM1717.47 511.148C1713.72 502.448 1713.12 495.068 1715.43 487.388C1721.35 467.688 1734.77 454.308 1751.91 444.258C1756.37 441.638 1761.64 442.248 1766.11 445.408C1770.45 448.488 1775.02 451.358 1778.91 454.948C1795.05 469.868 1806.24 486.808 1799.59 510.218C1800.44 510.538 1801.06 510.968 1801.68 510.968C1825.34 511.048 1848.99 511.038 1872.65 511.168C1878.68 511.198 1882.81 507.908 1885.79 503.418C1888.13 499.888 1889.85 495.748 1890.98 491.638C1895.57 475.068 1893.71 459.028 1884.06 444.798C1877.38 434.958 1869.74 425.558 1861.35 417.118C1842.21 397.878 1819.29 383.458 1796.48 369.038C1793.62 367.228 1789.63 366.598 1786.13 366.508C1774.14 366.208 1762.04 367.408 1750.17 366.158C1730.77 364.118 1714.87 370.148 1699.43 381.598C1682.29 394.308 1664.82 406.468 1649.72 421.638C1640.01 431.388 1631.65 442.148 1626.6 455.088C1620.88 469.738 1621.64 484.458 1627.48 498.858C1630.22 505.608 1634.9 511.008 1642.93 511.068C1667.23 511.248 1691.53 511.128 1717.47 511.128V511.148ZM2019.65 868.498V1236.03C2031.53 1240.15 2031.64 1240.31 2031.7 1253.04C2031.7 1254.7 2031.7 1256.37 2031.7 1258.03C2031.7 1287.98 2031.7 1317.93 2031.7 1347.88C2031.7 1351.42 2031.7 1354.96 2031.7 1358.2C2044.09 1360.4 2058.09 1360.05 2065.83 1357.39V1346.74C2065.83 1315.79 2065.83 1284.84 2065.83 1253.89C2065.83 1251.23 2065.71 1248.54 2066.03 1245.92C2066.61 1241.2 2068.67 1237.75 2074.13 1237.5C2075.68 1237.43 2077.19 1236.64 2078.41 1236.28V868.488H2019.64L2019.65 868.498ZM1580.37 828.288V811.578H402.102V828.288H1580.37ZM1580.36 982.258V964.738C1566.42 962.718 409.992 963.448 402.222 965.498V982.258H1580.36ZM4203.33 811.458H3025.91V828.228H4203.79C4203.79 824.688 4203.84 821.758 4203.77 818.818C4203.72 816.548 4203.51 814.268 4203.33 811.458ZM3025.62 982.088H4203.22V965.048C4191.34 962.918 3033.48 963.268 3025.62 965.378V982.088ZM1852.15 1427.49C1873.11 1429.61 2746.38 1428.67 2753.12 1426.71V1407.89C2750.8 1407.65 2749.18 1407.34 2747.55 1407.34C2450.62 1407.34 2153.7 1407.34 1856.77 1407.38C1855.8 1407.38 1854.82 1407.73 1853.86 1407.96C1853.56 1408.03 1853.26 1408.22 1853.02 1408.43C1852.78 1408.65 1852.61 1408.95 1852.14 1409.57V1427.48L1852.15 1427.49ZM959.692 997.018C966.322 1008.75 965.802 1020.37 965.792 1032.01C965.722 1160.44 965.742 1288.87 965.752 1417.3C965.752 1420.8 966.002 1424.31 966.142 1428.2C977.832 1428.13 988.302 1428.68 999.172 1427.83V1414.61C999.172 1288.51 999.172 1162.41 999.172 1036.31C999.172 1023.12 997.342 1009.67 1005.86 997.028H959.672L959.692 997.018ZM1129.18 1427.89C1129.18 1422.83 1129.18 1418.89 1129.18 1414.95C1129.13 1283.86 1129.03 1152.77 1129.18 1021.68C1129.18 1015.53 1131.32 1009.36 1132.61 1003.23C1133.03 1001.21 1133.91 999.278 1134.64 997.108H1089.83C1098.13 1012.04 1095.66 1027.52 1095.67 1042.67C1095.77 1167.11 1095.73 1291.54 1095.73 1415.98V1427.9H1129.17L1129.18 1427.89ZM1515.18 1427.91C1515.18 1422.9 1515.18 1418.97 1515.18 1415.03C1515.13 1283.91 1515.03 1152.78 1515.18 1021.66C1515.18 1015.5 1517.33 1009.34 1518.61 1003.2C1519.03 1001.18 1519.9 999.248 1520.63 997.078H1475.81C1483.99 1011.69 1481.67 1026.83 1481.68 1041.66C1481.76 1166.79 1481.73 1291.93 1481.73 1417.06V1427.9H1515.17L1515.18 1427.91ZM1355.74 1428.21C1367.66 1428.04 1378.14 1428.78 1389.18 1427.67C1389.18 1423.4 1389.18 1420.11 1389.18 1416.82C1389.18 1288.73 1389.22 1160.64 1389.11 1032.55C1389.1 1020.57 1388.64 1008.67 1395.45 997.148H1349.83C1357.87 1011.46 1355.69 1026.26 1355.7 1040.76C1355.77 1165.52 1355.74 1290.29 1355.74 1415.05V1428.21ZM489.182 1427.81C489.182 1423.02 489.182 1419.4 489.182 1415.77C489.182 1288.34 489.202 1160.92 489.142 1033.49C489.142 1021.22 488.112 1008.89 495.842 997.148H449.812C456.192 1008.56 455.802 1020.16 455.792 1031.8C455.702 1160.22 455.732 1288.65 455.732 1417.07C455.732 1420.59 455.732 1424.11 455.732 1427.8H489.172L489.182 1427.81ZM1259.18 1427.84C1259.18 1422.92 1259.18 1418.98 1259.18 1415.05C1259.13 1283.96 1259.03 1152.88 1259.18 1021.79C1259.18 1015.63 1261.28 1009.46 1262.57 1003.33C1263 1001.27 1263.94 999.318 1264.74 997.038H1219.43C1225.85 1007.34 1225.83 1017.88 1225.83 1028.56C1225.72 1157.98 1225.75 1287.41 1225.75 1416.83C1225.75 1420.37 1225.75 1423.91 1225.75 1427.85H1259.19L1259.18 1427.84ZM833.422 997.048C839.872 1007.37 839.822 1017.92 839.812 1028.6C839.712 1158.03 839.732 1287.45 839.732 1416.88C839.732 1420.41 839.732 1423.95 839.732 1427.53H873.172C873.172 1422.88 873.172 1418.94 873.172 1415C873.122 1283.91 873.022 1152.82 873.172 1021.73C873.172 1015.57 875.292 1009.4 876.572 1003.27C877.002 1001.23 877.912 999.278 878.692 997.048H833.412H833.422ZM705.912 997.048C711.202 1007.47 711.872 1017.88 711.862 1028.6C711.692 1158.02 711.742 1287.44 711.742 1416.87C711.742 1420.4 711.742 1423.94 711.742 1427.51H745.182C745.182 1422.85 745.182 1418.92 745.182 1414.98C745.132 1283.9 745.032 1152.81 745.182 1021.73C745.182 1015.57 747.302 1009.4 748.592 1003.27C749.022 1001.23 749.932 999.288 750.702 997.048H705.912ZM615.182 1427.84C615.182 1422.87 615.182 1418.93 615.182 1414.99C615.132 1283.91 615.032 1152.82 615.182 1021.74C615.182 1015.58 617.302 1009.41 618.582 1003.28C619.012 1001.23 619.922 999.288 620.702 997.048H575.422C581.872 1007.37 581.822 1017.92 581.812 1028.59C581.712 1158.01 581.732 1287.43 581.732 1416.86C581.732 1420.39 581.732 1423.93 581.732 1427.84H615.182ZM2671.36 1373.98H1934.27V1392.82H2671.36V1373.98ZM2232.36 150.938C2238.17 157.228 2244.14 160.638 2251.46 160.668C2285.77 160.808 2320.08 160.858 2354.39 160.628C2361.95 160.578 2368.52 157.508 2373.02 150.298C2368.65 144.318 2364.22 138.508 2360.06 132.508C2352.79 122.038 2347.31 110.668 2344.07 98.3377C2342.52 92.4277 2342.13 87.0777 2348.34 82.4377C2355.18 77.3277 2360.85 70.6677 2367.94 63.7977C2360.13 50.7077 2352.26 37.4977 2344.11 23.8277C2341.97 25.6177 2340.97 26.4477 2339.99 27.2777C2330.05 35.7477 2325.49 35.7977 2315.71 27.3877C2311.45 23.7277 2307.32 19.9077 2302.88 15.9277C2298.35 20.0377 2294.28 23.9077 2290.02 27.5577C2280.63 35.6177 2275.62 35.6177 2266.48 27.7677C2265.11 26.5977 2263.73 25.4377 2261.79 23.7977C2253.75 38.0777 2244.05 50.3377 2238.65 64.4677C2245.77 71.3177 2251.65 77.6977 2258.31 83.1377C2263 86.9677 2263.56 90.9177 2262.28 96.2877C2258.73 111.108 2251.91 124.288 2242.99 136.498C2239.68 141.038 2236.32 145.548 2232.38 150.908L2232.36 150.938ZM3210.53 997.098C3215.18 1006.68 3217.16 1015.81 3217.15 1025.67C3216.97 1157.17 3217.01 1288.67 3217.04 1420.17C3217.04 1422.68 3217.56 1425.2 3217.83 1427.59H3249.82C3249.82 1423.02 3249.82 1419.08 3249.82 1415.14C3249.82 1291.96 3249.77 1168.78 3249.88 1045.61C3249.9 1029.47 3247.3 1012.99 3255.96 997.098H3210.53ZM3123.82 1427.91C3123.82 1422.99 3123.82 1419.05 3123.82 1415.12C3123.82 1292.27 3123.76 1169.42 3123.89 1046.58C3123.91 1030.12 3121.17 1013.29 3129.87 997.188H3084.37C3089.36 1006.65 3091.15 1015.84 3091.14 1025.68C3090.97 1157.18 3091.01 1288.69 3091.04 1420.19C3091.04 1422.7 3091.57 1425.21 3091.87 1427.91H3123.82ZM4110.58 997.158C4115.14 1006.63 4117.17 1015.75 4117.16 1025.61C4116.97 1157.11 4117.01 1288.61 4117.04 1420.11C4117.04 1422.63 4117.55 1425.15 4117.82 1427.6H4149.83C4149.83 1423.05 4149.83 1419.12 4149.83 1415.19C4149.83 1291.68 4149.79 1168.17 4149.88 1044.66C4149.89 1028.85 4147.4 1012.7 4155.99 997.168H4110.58V997.158ZM3470.59 997.158C3475.12 1006.63 3477.17 1015.74 3477.16 1025.6C3476.97 1157.1 3477.01 1288.6 3477.04 1420.1C3477.04 1422.62 3477.55 1425.14 3477.81 1427.61H3509.82C3509.82 1423.07 3509.82 1419.14 3509.82 1415.21C3509.82 1291.7 3509.78 1168.19 3509.87 1044.68C3509.88 1028.87 3507.38 1012.72 3516 997.158H3470.58H3470.59ZM3639.82 1427.92C3639.82 1423.05 3639.82 1419.11 3639.82 1415.18C3639.82 1291.67 3639.78 1168.16 3639.87 1044.65C3639.88 1028.84 3637.41 1012.69 3645.96 997.178H3600.4C3605.31 1006.62 3607.15 1015.8 3607.14 1025.64C3606.97 1157.14 3607.01 1288.64 3607.03 1420.14C3607.03 1422.66 3607.55 1425.17 3607.85 1427.92H3639.82ZM3379.82 1427.92C3379.82 1423.01 3379.82 1419.07 3379.82 1415.13C3379.82 1291.95 3379.77 1168.77 3379.88 1045.6C3379.89 1029.46 3377.31 1012.98 3385.89 997.198H3340.58C3345.18 1006.69 3347.16 1015.82 3347.15 1025.68C3346.97 1157.18 3347.01 1288.68 3347.04 1420.18C3347.04 1422.69 3347.57 1425.21 3347.87 1427.91H3379.82V1427.92ZM3765.82 1427.92C3765.82 1423.04 3765.82 1419.1 3765.82 1415.16C3765.82 1291.98 3765.77 1168.8 3765.88 1045.63C3765.89 1029.49 3763.28 1013.01 3771.93 997.188H3726.57C3731.17 1006.67 3733.16 1015.8 3733.15 1025.66C3732.97 1157.16 3733.01 1288.66 3733.03 1420.16C3733.03 1422.68 3733.55 1425.19 3733.85 1427.93H3765.81L3765.82 1427.92ZM3900.5 997.038H3856.3C3857.93 1005.99 3860.88 1014.67 3860.9 1023.36C3861.16 1155.19 3861.03 1287.02 3861.03 1418.86C3861.03 1421.74 3861.42 1424.61 3861.64 1427.7H3893.82C3893.82 1423.28 3893.82 1419.37 3893.82 1415.46C3893.82 1289.95 3893.82 1164.45 3893.83 1038.94C3893.83 1025.06 3892.05 1010.95 3900.5 997.048V997.038ZM4030.14 997.098H3986.36C3987.98 1006.1 3990.89 1014.79 3990.9 1023.49C3991.16 1155.32 3991.03 1287.15 3991.03 1418.98C3991.03 1421.84 3991.45 1424.7 3991.68 1427.65H4023.82C4023.82 1423.16 4023.82 1419.24 4023.82 1415.33C4023.82 1290.82 4023.8 1166.32 4023.85 1041.81C4023.85 1026.96 4021.8 1011.85 4030.14 997.108V997.098ZM2702.68 838.588H1903.63V854.168H2702.68V838.588ZM2600.36 868.798V1236.98C2611.35 1237.78 2622.02 1238.11 2632.55 1236.79C2634.74 1210.6 2633.71 876.038 2631.28 867.908C2623.23 867.908 2614.94 867.858 2606.65 867.948C2604.73 867.968 2602.81 868.458 2600.36 868.798ZM2512.53 1236.83V868.648H2480.29V1236.83H2512.53ZM2256.53 1236.83V868.648H2224.29V1236.83H2256.53ZM2634.74 750.728H1971.54V767.458H2634.74V750.728ZM1974.27 868.468C1972.14 880.198 1972.6 1229.5 1974.68 1236.78H2005.18V868.468H1974.27ZM2350.26 868.468C2348.12 880.428 2348.61 1229.54 2350.91 1237.54C2355.61 1237.54 2360.56 1237.58 2365.52 1237.53C2370.72 1237.48 2375.91 1237.33 2381.18 1237.23V868.468H2350.26ZM2094.24 868.468C2092.07 880.928 2092.61 1229.64 2094.84 1237.18C2104.86 1237.7 2114.99 1237.84 2125.16 1237.15V867.888C2116.97 867.888 2109.37 867.838 2101.78 867.918C2099.21 867.948 2096.64 868.288 2094.24 868.468ZM2302.28 428.238C2290.46 444.498 2278.98 459.168 2268.76 474.668C2256.94 492.578 2248.85 512.238 2246.26 533.748C2243.5 556.618 2259.46 569.788 2276.73 569.198C2294.34 568.598 2311.99 569.148 2329.62 568.998C2333.19 568.968 2336.97 568.608 2340.29 567.398C2353.66 562.548 2360.64 553.148 2359.47 538.228C2358.6 527.138 2356.04 515.878 2352.34 505.358C2342.12 476.338 2322.97 452.878 2302.29 428.228L2302.28 428.238ZM2670.52 1359.01V868.728H2647.68V1236.33C2659.26 1239.13 2659.64 1239.62 2659.74 1251.21C2659.76 1253.21 2659.74 1255.2 2659.74 1257.2V1348.05C2659.74 1351.57 2659.74 1355.09 2659.74 1359.02H2670.51L2670.52 1359.01ZM1945.84 1359.03V1346.98C1945.84 1315.7 1945.76 1284.43 1945.93 1253.15C1945.95 1248.95 1946.08 1244 1948.24 1240.79C1950.05 1238.1 1954.89 1237.44 1958.55 1235.81V868.708H1935.9C1933.56 890.818 1934.55 1356.79 1936.92 1359.02H1945.85L1945.84 1359.03ZM1999.62 597.558H2606.49C2606.74 594.718 2607.06 592.468 2607.09 590.208C2607.12 587.968 2606.85 585.718 2606.68 582.848H1999.62V597.568V597.558ZM3593.15 1098.94C3593.15 1089.31 3593.15 1080.39 3593.15 1071.47C3593.15 1054.86 3593.31 1038.25 3593.08 1021.64C3592.86 1006.19 3583.36 996.678 3568.56 996.618C3560.58 996.588 3552.6 996.528 3544.62 996.648C3533.47 996.808 3528.07 1000.8 3525.22 1011.47C3524.21 1015.26 3523.86 1019.32 3523.83 1023.27C3523.68 1045.86 3523.71 1068.45 3523.74 1091.04C3523.74 1093.58 3524.16 1096.11 3524.4 1098.94H3593.15ZM3977.15 1099.16C3977.15 1087.21 3977.15 1076.28 3977.15 1065.35C3977.15 1050.4 3977.41 1035.44 3977.04 1020.5C3976.68 1005.87 3966.88 996.668 3952.42 996.608C3944.11 996.578 3935.79 996.478 3927.48 996.658C3917.83 996.868 3912.64 1000.54 3909.77 1009.69C3908.5 1013.73 3907.9 1018.15 3907.86 1022.4C3907.66 1045.65 3907.72 1068.91 3907.74 1092.16C3907.74 1094.35 3908.17 1096.54 3908.44 1099.15H3977.14L3977.15 1099.16ZM3333.15 1098.94C3333.15 1083.99 3333.15 1070.06 3333.15 1056.12C3333.15 1044.49 3333.33 1032.86 3333.08 1021.24C3332.74 1005.98 3323.16 996.658 3308.17 996.608C3300.19 996.578 3292.21 996.508 3284.23 996.648C3273.58 996.828 3268.24 1000.71 3265.4 1010.88C3264.26 1014.97 3263.88 1019.38 3263.84 1023.65C3263.66 1042.92 3263.73 1062.19 3263.71 1081.45C3263.71 1087.04 3263.71 1092.63 3263.71 1098.94H3333.15ZM3393.71 1099.68C3417.66 1099.5 3440.09 1099.99 3463.15 1099.37C3463.15 1086.48 3463.15 1074.88 3463.15 1063.27C3463.15 1048.98 3463.42 1034.69 3463.04 1020.42C3462.65 1005.81 3452.86 996.658 3438.34 996.608C3430.03 996.578 3421.71 996.468 3413.4 996.658C3403.78 996.878 3398.6 1000.58 3395.74 1009.76C3394.48 1013.81 3393.94 1018.21 3393.86 1022.47C3393.61 1036.42 3393.72 1050.37 3393.71 1064.33C3393.7 1075.59 3393.71 1086.86 3393.71 1099.68ZM697.392 1099.23C697.592 1095.68 697.862 1093.06 697.872 1090.43C697.872 1067.81 697.832 1045.2 697.792 1022.58C697.792 1020.25 697.882 1017.9 697.562 1015.61C695.652 1002.05 688.032 995.798 676.552 996.508C667.932 997.048 659.232 996.868 650.592 996.538C643.502 996.268 638.512 999.238 634.612 1004.83C631.112 1009.86 628.982 1015.15 629.032 1021.5C629.212 1045.11 629.062 1068.73 629.112 1092.34C629.112 1094.52 629.662 1096.71 629.992 1099.23H697.392ZM1341.39 1099.23C1341.59 1095.68 1341.87 1093.06 1341.87 1090.43C1341.87 1067.81 1341.83 1045.2 1341.79 1022.58C1341.79 1020.25 1341.88 1017.9 1341.56 1015.61C1339.65 1002.03 1332.02 995.798 1320.55 996.508C1311.93 997.048 1303.23 996.868 1294.59 996.538C1287.5 996.268 1282.51 999.238 1278.61 1004.83C1275.11 1009.86 1272.98 1015.15 1273.03 1021.5C1273.21 1045.11 1273.06 1068.73 1273.11 1092.34C1273.11 1094.52 1273.66 1096.71 1273.99 1099.23H1341.39ZM1211.39 1099.08C1211.61 1096.3 1211.86 1094.67 1211.86 1093.03C1211.86 1068.75 1211.82 1044.47 1211.77 1020.19C1211.77 1018.2 1211.72 1016.18 1211.42 1014.22C1209.59 1002.41 1203.17 996.808 1191.15 996.638C1183.16 996.528 1175.17 996.568 1167.18 996.608C1152.89 996.678 1143.38 1005.54 1143.2 1019.9C1142.89 1044.84 1143.1 1069.79 1143.13 1094.73C1143.13 1096 1143.59 1097.26 1143.94 1099.07H1211.39V1099.08ZM1013.71 1098.42C1024.88 1100.56 1074.27 1100.1 1081.51 1097.78C1081.63 1096.27 1081.86 1094.63 1081.86 1092.99C1081.86 1068.71 1081.82 1044.43 1081.77 1020.15C1081.77 1018.16 1081.72 1016.14 1081.41 1014.18C1079.56 1002.37 1073.16 996.798 1061.12 996.628C1052.47 996.508 1043.79 996.928 1035.16 996.508C1027.19 996.108 1021.9 999.668 1017.79 1005.99C1014.61 1010.86 1013 1016 1013.04 1021.92C1013.21 1045.2 1013.07 1068.48 1013.11 1091.76C1013.11 1094.02 1013.51 1096.27 1013.72 1098.4L1013.71 1098.42ZM4579.28 664.648C4579.57 664.058 4579.85 663.468 4580.14 662.878C4575.94 659.218 4571.6 655.708 4567.59 651.858C4562.96 647.398 4557.65 645.998 4551.27 646.008C4437.67 646.138 4324.07 646.098 4210.47 646.118C4200.09 646.118 4187.89 654.298 4182.7 664.648H4579.28ZM423.272 664.658C423.582 664.038 423.902 663.428 424.212 662.808C420.242 659.408 416.002 656.258 412.352 652.548C407.282 647.378 401.362 645.988 394.292 645.998C281.362 646.138 168.432 646.098 55.4923 646.108C44.1423 646.108 32.2723 653.738 26.6623 664.658H423.272ZM2646.93 698.208H3049.18C3045.16 694.838 3042.7 693.188 3040.76 691.068C3032.8 682.398 3023.29 679.758 3011.39 679.808C2901.79 680.238 2792.19 680.058 2682.59 680.058C2679.59 680.058 2676.54 679.728 2673.61 680.188C2670.75 680.638 2667.55 681.258 2665.32 682.918C2659.53 687.198 2654.19 692.098 2646.93 698.208ZM1958.61 698.638C1954.64 694.868 1952.18 692.778 1950 690.408C1942.52 682.278 1933.52 679.808 1922.38 679.838C1811.45 680.208 1700.51 680.058 1589.58 680.068C1577.34 680.068 1565.9 687.078 1559.48 698.638H1958.61ZM3976.68 1169.07C3955.72 1167.33 3915.17 1168.03 3908.34 1170.12V1265.71H3976.68V1169.07ZM3524.24 1168.82V1265.82H3592.44V1168.82H3524.24ZM3462.63 1169.03H3394.39V1265.66H3462.63V1169.03ZM3264.23 1265.8H3332.45V1169.17H3264.23V1265.8ZM3847.15 1098.94C3847.15 1089.31 3847.15 1080.39 3847.15 1071.47C3847.15 1054.86 3847.31 1038.25 3847.08 1021.64C3846.87 1006.19 3837.36 996.678 3822.57 996.618C3815.25 996.588 3807.94 996.538 3800.62 996.648C3789.47 996.818 3784.07 1000.8 3781.22 1011.47C3780.21 1015.26 3779.86 1019.32 3779.83 1023.27C3779.68 1045.86 3779.71 1068.45 3779.74 1091.04C3779.74 1093.58 3780.15 1096.11 3780.4 1098.95H3847.14L3847.15 1098.94ZM825.412 1099.23C825.612 1095.59 825.882 1092.97 825.882 1090.34C825.882 1067.72 825.852 1045.11 825.792 1022.49C825.792 1019.5 825.832 1016.46 825.312 1013.54C823.312 1002.18 817.012 996.818 805.482 996.638C796.832 996.508 788.172 996.758 779.512 996.568C773.652 996.438 769.262 998.828 765.792 1003.31C761.622 1008.69 758.972 1014.45 759.042 1021.58C759.252 1045.19 759.082 1068.81 759.132 1092.42C759.132 1094.59 759.692 1096.77 760.032 1099.23H825.412ZM1273.49 1266.36C1285.56 1266.36 1296.51 1266.36 1307.46 1266.36C1318.41 1266.36 1329.88 1266.36 1340.91 1266.36C1342.82 1251.57 1342.25 1176.16 1340.33 1169.07H1273.49V1266.36ZM1211.11 1266.01C1213.08 1247.53 1212.3 1175.85 1210.23 1169.13H1143.82C1141.92 1187.14 1142.68 1259.03 1144.8 1266.01H1211.11ZM1081.47 1169.06H1013.09C1013.07 1201.7 1013.07 1233.73 1013.09 1265.77H1081.46V1169.06H1081.47ZM697.892 1266.05C697.812 1233.05 698.152 1201.03 697.682 1169.11H629.062C629.332 1201.8 628.612 1233.83 629.482 1266.05H697.892ZM3846.59 1265.97V1169.05H3780.47V1265.97H3846.59ZM3653.88 1099.02H3718.95C3718.95 1071.24 3719.65 1044.07 3718.64 1016.96C3718.16 1004.18 3707.75 996.688 3694.87 996.618C3688.88 996.588 3682.9 996.588 3676.91 996.618C3661.88 996.708 3654.42 1002.89 3654.06 1018C3653.43 1044.54 3653.88 1071.11 3653.88 1099.02ZM3203.16 1098.94C3203.16 1089.31 3203.16 1080.39 3203.16 1071.48C3203.16 1054.87 3203.32 1038.26 3203.09 1021.65C3202.88 1006.2 3193.37 996.688 3178.59 996.618C3171.94 996.588 3165.29 996.528 3158.64 996.628C3147.51 996.798 3142.09 1000.8 3139.24 1011.46C3138.23 1015.25 3137.88 1019.31 3137.85 1023.26C3137.7 1045.85 3137.73 1068.44 3137.76 1091.03C3137.76 1093.57 3138.17 1096.1 3138.42 1098.95H3203.16V1098.94ZM4037.87 1099.01H4103.16C4103.16 1093.47 4103.16 1088.57 4103.16 1083.67C4103.16 1063.07 4103.3 1042.48 4103.09 1021.88C4102.93 1005.97 4093.41 996.658 4077.82 996.608C4072.17 996.588 4066.51 996.588 4060.86 996.618C4045.86 996.708 4038.4 1002.92 4038.04 1018.04C4037.42 1044.58 4037.87 1071.15 4037.87 1099V1099.01ZM567.472 1099.06C567.632 1095.54 567.882 1092.6 567.882 1089.66C567.912 1069.04 567.902 1048.42 567.862 1027.8C567.862 1023.81 567.952 1019.8 567.572 1015.84C566.332 1002.91 559.672 996.808 546.782 996.648C539.462 996.558 532.122 996.918 524.812 996.548C517.272 996.158 512.192 999.548 508.152 1005.47C504.672 1010.58 502.972 1016 503.022 1022.29C503.212 1045.24 503.052 1068.19 503.102 1091.13C503.102 1093.67 503.562 1096.21 503.842 1099.06H567.472ZM1467.41 1099.25C1467.61 1095.65 1467.88 1093.03 1467.88 1090.4C1467.88 1067.78 1467.85 1045.17 1467.79 1022.55C1467.79 1019.56 1467.83 1016.52 1467.32 1013.6C1465.34 1002.23 1459.02 996.818 1447.53 996.638C1439.54 996.508 1431.55 996.768 1423.56 996.578C1417.71 996.438 1413.3 998.798 1409.82 1003.29C1405.65 1008.67 1402.97 1014.42 1403.03 1021.54C1403.24 1045.15 1403.07 1068.77 1403.12 1092.38C1403.12 1094.56 1403.67 1096.74 1404.01 1099.24H1467.4L1467.41 1099.25ZM951.352 1099.05C951.592 1096.42 951.872 1094.79 951.872 1093.15C951.872 1068.87 951.842 1044.59 951.782 1020.31C951.782 1017.99 951.732 1015.62 951.302 1013.36C949.182 1002.07 942.912 996.828 931.292 996.648C923.972 996.538 916.622 996.968 909.322 996.528C901.372 996.048 896.022 999.548 891.882 1005.88C888.702 1010.74 887.002 1015.85 887.042 1021.78C887.212 1045.06 887.072 1068.34 887.102 1091.62C887.102 1093.9 887.462 1096.17 887.702 1099.04H951.352V1099.05ZM3203.18 1265.94C3203.03 1233.02 3203.44 1200.98 3202.91 1169.08C3181.54 1167.35 3145.16 1168.03 3138.36 1170.13V1265.94H3203.18ZM759.832 1168.79V1265.78H825.892C825.872 1233.16 825.972 1201.14 825.822 1168.79H759.822H759.832ZM4038.25 1168.83V1265.82H4102.45V1168.83H4038.25ZM3719.18 1265.94C3719.03 1233.01 3719.44 1200.98 3718.9 1169.07C3697.43 1167.34 3661.15 1168.03 3654.36 1170.13V1265.94H3719.18ZM2524.83 1250.4C2505.04 1250.38 2486.28 1250.31 2467.68 1250.44V1358.18C2480.25 1360.17 2517.66 1359.66 2524.83 1357.45V1250.4ZM2017.09 1358.93V1251.09C1998.88 1249.33 1966.98 1249.96 1960.33 1252.08V1358.92H2017.09V1358.93ZM2080.23 1358.58H2137.36V1251.03H2080.23V1358.58ZM2268.62 1358.55V1251.03H2211.53V1358.55H2268.62ZM2393.18 1358.75V1251.25C2378.22 1249.46 2343.2 1249.99 2336.42 1251.98V1358.74H2393.18V1358.75ZM2645.47 1250.93H2588.42V1358.28C2599.63 1360.31 2638.04 1359.97 2645.47 1357.81V1250.93ZM3332.78 1427.74C3333.51 1398.09 3333.08 1368.48 3333.1 1339.01C3314.32 1337.23 3271.26 1337.89 3264.32 1339.91V1427.74H3332.78ZM3462.6 1338.86H3394.45V1427.47C3410.05 1429.14 3455.42 1428.56 3462.6 1426.65V1338.86ZM3593.17 1427.79C3593.08 1397.52 3593.35 1368.15 3592.99 1338.91C3571.36 1337.13 3531.17 1337.85 3524.36 1339.96V1427.79H3593.17ZM3908.84 1338.29C3906.88 1351.89 3907.35 1420.64 3909.26 1427.65C3927.25 1429.29 3969.57 1428.61 3976.55 1426.58V1338.84C3974.39 1338.62 3972.79 1338.31 3971.19 1338.31C3950.57 1338.28 3929.94 1338.29 3908.83 1338.29H3908.84ZM1467.03 1266.07C1468.95 1249.79 1468.28 1176.03 1466.29 1169.13H1403.06C1403.33 1201.81 1402.61 1233.85 1403.48 1266.07H1467.03ZM503.492 1266.39C514.902 1266.39 525.182 1266.39 535.472 1266.39C545.762 1266.39 556.562 1266.39 566.922 1266.39C568.832 1251.5 568.252 1176.17 566.332 1169.1H503.492V1266.39ZM951.892 1266.07C951.812 1233.07 952.152 1201.05 951.682 1169.13H887.062C887.332 1201.82 886.612 1233.85 887.482 1266.07H951.892ZM1273.62 1427.5H1341.38V1339.01H1273.62V1427.5ZM697.962 1427.91C697.612 1397.58 698.462 1368.21 697.472 1338.93H629.072C629.282 1368.95 628.662 1398.32 629.492 1427.91H697.972H697.962ZM1081.49 1338.92H1013.06C1013.27 1368.94 1012.64 1398.32 1013.48 1427.62H1081.49V1338.92ZM3846.19 1427.81C3848.17 1412.49 3847.56 1345.68 3845.5 1338.79C3824.92 1337.13 3787.07 1337.85 3780.37 1339.99V1427.82H3846.19V1427.81ZM1143.11 1338.61C1143.11 1368.88 1143 1398.25 1143.17 1427.64H1210.97C1212.77 1414.14 1212.25 1346.12 1210.29 1338.61H1143.11ZM825.492 1338.89H759.112C759.112 1368.87 759.012 1398.24 759.172 1427.64H825.492V1338.89ZM3654.3 1427.52H3718.28C3720.25 1411.46 3719.57 1345.53 3717.47 1338.81H3654.3V1427.52ZM4038.81 1338.77C4036.94 1351.41 4037.37 1420.53 4039.25 1427.62C4055.94 1429.22 4095.58 1428.59 4102.58 1426.6V1338.77H4038.81ZM3138.27 1427.67H3202.46V1339.03H3138.27V1427.67ZM1468.04 1427.88C1467.63 1397.62 1468.31 1368.23 1467.64 1338.89H1403.83V1427.88H1468.05H1468.04ZM503.102 1338.63C503.312 1369 502.612 1398.38 503.532 1427.56H567.922C567.812 1397.52 568.202 1368.16 567.672 1338.63H503.102ZM951.062 1427.92C952.972 1411.57 952.312 1345.89 950.312 1338.94H887.092C887.302 1368.98 886.642 1398.36 887.522 1427.92H951.062ZM1599.02 524.658C1606.39 535.508 1612.21 543.718 1626.69 543.498C1681.68 542.668 1736.68 543.168 1791.68 543.168C1825.35 543.168 1859.01 543.158 1892.68 543.188C1897.05 543.188 1901.52 543.498 1904.78 539.878C1908.71 535.508 1912.43 530.948 1917.79 524.658H1599.02ZM4222.48 490.608C4229.58 503.758 4237.75 509.838 4252.49 509.578C4306.81 508.628 4361.15 509.198 4415.48 509.198C4448.81 509.198 4482.15 509.278 4515.48 509.088C4519.29 509.068 4523.77 508.538 4526.74 506.498C4532.08 502.828 4535.99 497.468 4539.61 490.608H4222.48ZM66.4823 490.608C73.5823 503.748 81.7423 509.828 96.4923 509.578C150.802 508.628 205.152 509.198 259.482 509.198C292.812 509.198 326.152 509.278 359.482 509.088C363.292 509.068 367.772 508.538 370.742 506.498C376.082 502.828 379.992 497.468 383.612 490.608H66.4323H66.4823ZM2689.75 524.578C2696.43 538.598 2705.69 543.628 2720.49 543.508C2807.15 542.808 2893.82 543.168 2980.48 543.158C2993.52 543.158 3000.38 538.068 3005.17 524.568H2689.76L2689.75 524.578ZM1580.7 996.668C1569.27 996.668 1558.95 996.728 1548.63 996.648C1543.56 996.608 1539.65 998.728 1536.51 1002.53C1531.95 1008.05 1528.98 1014.02 1529.05 1021.56C1529.26 1045.2 1529.09 1068.84 1529.14 1092.49C1529.14 1094.66 1529.71 1096.83 1530.01 1098.99H1580.69V996.678L1580.7 996.668ZM3025.56 996.638V1098.97H3077.18C3077.18 1089 3077.18 1079.75 3077.18 1070.49C3077.18 1054.52 3077.28 1038.55 3077.13 1022.58C3076.97 1005.93 3067.71 996.688 3051.45 996.648C3043.17 996.628 3034.89 996.648 3025.56 996.648V996.638ZM3025.11 1168.75C3025.37 1201.7 3024.7 1233.76 3025.51 1265.79H3077.17C3077.13 1233.14 3077.28 1201.08 3077.09 1168.75H3025.11ZM1580.59 1265.91V1169.12H1529.82V1265.91H1580.59ZM1581.19 1427.74C1581.08 1397.52 1581.41 1368.2 1580.97 1338.79H1529.67V1427.74H1581.19ZM3076.83 1338.78H3025.81V1427.35C3040.83 1429.17 3069.89 1428.63 3076.83 1426.44V1338.78ZM2251.6 174.998C2245.69 186.918 2240.16 198.078 2234.32 209.848H2371.4C2365.62 197.998 2360.18 186.818 2354.42 174.998H2251.6ZM402.802 996.658C400.842 1011.35 401.402 1091.71 403.422 1099.12H441.052C441.372 1097 441.812 1095.41 441.812 1093.82C441.822 1068.93 441.792 1044.04 441.732 1019.16C441.732 1017.51 441.652 1015.83 441.392 1014.2C439.522 1002.42 433.132 996.878 421.132 996.688C415.182 996.588 409.222 996.668 402.802 996.668V996.658ZM4203.3 996.658C4196.03 996.658 4189.74 996.528 4183.47 996.688C4173.8 996.938 4168.57 1000.57 4165.75 1009.76C4164.41 1014.13 4163.89 1018.89 4163.84 1023.49C4163.62 1043.45 4163.71 1063.42 4163.69 1083.39C4163.69 1088.33 4163.69 1093.28 4163.69 1098.96H4203.31V996.668L4203.3 996.658ZM402.472 1169.01V1266.27C415.952 1266.4 428.712 1266.58 441.342 1266.19V1169.01H402.472ZM4163.67 1168.97C4163.81 1201.86 4163.42 1233.84 4163.93 1265.89H4203.21V1168.97H4163.67ZM4203.8 1427.81C4203.53 1397.47 4204.25 1368.14 4203.34 1338.86H4164.32V1427.81H4203.8ZM441.302 1338.98H402.492V1427.73H441.302V1338.98ZM3524.22 1280.18V1323.82H3592.57V1280.18H3524.22ZM3394.1 1323.67H3462.45V1280.63C3450.5 1278.63 3401.65 1279.12 3394.1 1281.32V1323.67ZM3976.37 1323.97V1280.49C3962.05 1278.43 3915.17 1279.11 3908.4 1281.37V1323.97H3976.37ZM3332.57 1280.2H3264.24V1323.8H3332.57V1280.2ZM3524.22 1155.64C3547.63 1155.4 3570.05 1156.26 3592.55 1155.07V1113.09H3524.22V1155.64ZM3908 1154.88H3976.59V1113.77C3964.83 1111.64 3915 1112.1 3908 1114.35V1154.89V1154.88ZM3332.82 1113.15H3264.16V1155.55C3287.2 1155.55 3309.86 1156.08 3332.82 1155.18V1113.15ZM3394.22 1155.64C3417.63 1155.4 3440.05 1156.26 3462.55 1155.07V1113.09H3394.22V1155.64ZM1211.34 1280.22H1143.88V1323.77H1211.34V1280.22ZM1013.52 1323.81H1081.06V1280.17H1013.52V1323.81ZM697.342 1280.22H629.882V1323.77H697.342V1280.22ZM1143.37 1155.09H1211.22V1113.49C1197.03 1111.64 1150.39 1112.14 1143.37 1114.18V1155.09ZM1341.42 1113.15H1273.04C1273.04 1120.66 1272.91 1127.58 1273.08 1134.49C1273.24 1141.29 1272.29 1148.2 1273.82 1154.95H1341.43V1113.16L1341.42 1113.15ZM1013.56 1155.04H1081.14V1113.06H1013.56V1155.04ZM697.852 1155.01C697.852 1147.22 697.902 1140.28 697.832 1133.34C697.762 1126.55 697.572 1119.76 697.432 1113.19H629.482V1155.01H697.852ZM3780.23 1323.81H3846.57V1280.2H3780.23V1323.81ZM1273.72 1280.05V1323.56C1289.65 1325.38 1334.64 1324.78 1341.16 1322.82V1280.05H1273.72ZM3780.18 1154.2C3790.89 1156.58 3839.74 1156.13 3846.42 1153.76V1113.23H3780.18V1154.2ZM3654.28 1324.3C3676.36 1324.32 3697.48 1324.68 3719.11 1324.12C3719.11 1315.72 3719.16 1308.76 3719.1 1301.8C3719.03 1294.63 3718.85 1287.46 3718.72 1280.09H3654.29V1324.31L3654.28 1324.3ZM4102.5 1280.26H4038.26V1323.75H4102.5V1280.26ZM825.322 1155.04V1113.23H759.542V1155.04H825.322ZM759.722 1280.05V1323.56C775.032 1325.31 818.902 1324.71 825.162 1322.82V1280.05H759.722ZM3137.74 1280.07C3137.69 1295.05 3137.53 1309.44 3137.85 1323.69C3157.33 1325.49 3195.58 1324.82 3203.11 1322.53C3203.11 1315.75 3203.16 1308.79 3203.1 1301.83C3203.03 1294.65 3202.86 1287.48 3202.72 1280.07H3137.73H3137.74ZM4038.16 1154.11C4047.63 1156.42 4095.16 1156.19 4102.49 1153.89V1113.16H4038.16V1154.11ZM3202.63 1113.09H3138.42V1155.58C3160.25 1155.65 3181.34 1155.73 3203.11 1155.55C3203.11 1142.51 3203.13 1130.91 3203.09 1119.32C3203.09 1117.41 3202.81 1115.49 3202.63 1113.09ZM3718.66 1113.21C3700.12 1111.53 3661.31 1112.16 3654.31 1114.14V1154.95H3718.66V1113.21ZM1403.47 1154.92H1467.02V1113.18H1403.47V1154.92ZM567.432 1113.15H503.042C503.042 1120.65 502.922 1127.57 503.082 1134.48C503.242 1141.28 502.302 1148.19 503.812 1154.95H567.432V1113.15ZM1467.26 1323.92V1279.63C1445.68 1279.48 1424.71 1279.27 1403.62 1279.74V1323.92H1467.26ZM887.142 1112.83C887.032 1127.45 886.902 1141.15 887.202 1154.96H951.862C951.862 1147.36 951.912 1140.42 951.852 1133.49C951.792 1126.68 951.622 1119.87 951.492 1112.83H887.142ZM503.642 1280.02V1323.65H567.242V1280.02H503.642ZM951.862 1323.84C951.862 1315.89 951.922 1308.64 951.842 1301.4C951.772 1294.26 951.572 1287.13 951.432 1280.23H887.522V1323.84H951.862ZM2220.16 223.888C2219.99 226.798 2219.74 228.768 2219.8 230.728C2219.86 232.968 2220.19 235.208 2220.52 238.568C2275.65 238.468 2330.37 238.758 2385.24 238.368V223.888H2220.16ZM224.912 423.028C212.852 429.978 203.512 438.718 198.072 450.998C196.502 454.558 195.342 458.568 195.172 462.418C194.762 471.848 200.112 477.098 209.572 477.168C219.862 477.248 230.162 477.258 240.452 477.168C249.962 477.088 256.432 469.708 254.902 460.328C254.332 456.798 252.872 453.328 251.332 450.048C245.792 438.208 236.632 429.818 224.912 423.038V423.028ZM1757.47 456.708C1752.74 460.348 1748.08 463.518 1743.9 467.238C1736.57 473.768 1731.39 481.868 1728.65 491.308C1725.33 502.748 1731.57 511.068 1743.31 511.138C1753.6 511.198 1763.9 511.238 1774.19 511.118C1782.13 511.028 1787.4 506.438 1787.56 498.438C1787.65 493.978 1786.54 489.178 1784.77 485.048C1779.48 472.708 1770.06 463.998 1757.46 456.708H1757.47ZM2847.24 456.738C2842.14 460.838 2836.69 464.618 2831.95 469.158C2825.38 475.448 2820.77 483.198 2818.42 492.028C2815.53 502.908 2821.89 511.068 2833.06 511.138C2843.35 511.208 2853.65 511.228 2863.94 511.128C2871.97 511.048 2877.22 506.598 2877.56 498.688C2877.74 494.548 2876.83 490.058 2875.25 486.198C2869.89 473.128 2860.27 463.848 2847.23 456.738H2847.24ZM4380.91 423.028C4368.85 429.978 4359.51 438.708 4354.07 450.988C4352.5 454.548 4351.33 458.548 4351.16 462.408C4350.74 471.838 4356.1 477.088 4365.55 477.168C4375.84 477.248 4386.14 477.258 4396.43 477.168C4405.94 477.088 4412.41 469.708 4410.89 460.328C4410.32 456.798 4408.86 453.328 4407.32 450.048C4401.78 438.208 4392.62 429.818 4380.9 423.028H4380.91ZM1580.56 1280.2H1529.88V1323.79H1580.56V1280.2ZM3076.5 1323.92V1280.76C3065.87 1278.76 3033.18 1279.07 3025.66 1281.17V1323.92H3076.5ZM1529.54 1113.09V1155.46C1546.81 1155.61 1563.59 1156 1580.56 1155.3V1113.09H1529.54ZM3025.6 1113.07V1155.54C3042.89 1155.7 3059.66 1155.73 3076.56 1155.54V1113.07H3025.6ZM2004.77 328.198C1992.75 367.968 1990.41 407.778 1998.55 448.188C1999.85 445.178 2000.44 442.008 2001.37 438.928C2005.09 426.568 2007.41 413.488 2013.09 402.098C2019.23 389.788 2020.02 378.318 2016.09 365.728C2013.62 357.818 2011.66 349.748 2009.31 341.788C2007.96 337.208 2006.29 332.718 2004.77 328.188V328.198ZM402.472 1280.04V1323.68H441.262V1280.04H402.472ZM4164.22 1323.78H4203.77C4203.77 1315.94 4203.82 1308.7 4203.76 1301.46C4203.7 1294.31 4203.51 1287.16 4203.38 1279.89H4164.22V1323.78ZM4164.36 1112.98V1155.58C4177.75 1155.51 4190.47 1156.03 4203.15 1155.31V1112.98H4164.36ZM441.362 1113.22H402.282V1154.91H441.872C441.872 1143.24 441.902 1132.29 441.852 1121.35C441.842 1118.77 441.552 1116.19 441.362 1113.22ZM245.782 317.848C241.492 310.938 237.902 305.378 234.532 299.698C229.492 291.178 229.782 289.748 237.262 282.948C246.232 274.798 246.472 268.408 237.032 260.678C224.512 250.438 225.582 250.158 213.002 260.548C203.072 268.768 203.362 274.738 213.082 283.348C220.082 289.548 220.382 291.028 215.572 299.288C212.152 305.158 208.492 310.898 204.242 317.838H245.782V317.848ZM4401.66 317.708C4397.42 310.878 4393.67 305.108 4390.2 299.178C4385.57 291.268 4385.96 289.498 4392.97 283.178C4402.2 274.848 4402.61 268.638 4393.31 260.938C4380.64 250.458 4381.59 249.988 4368.55 260.978C4359.21 268.858 4359.56 274.928 4368.77 283.148C4376.23 289.808 4376.47 291.058 4371.27 299.848C4367.93 305.478 4364.4 310.998 4360.24 317.718H4401.65L4401.66 317.708ZM1778.7 351.878C1776.21 347.758 1774.71 345.228 1773.15 342.718C1771.4 339.898 1769.55 337.138 1767.86 334.278C1762.35 324.988 1762.52 323.998 1770.45 316.828C1779.17 308.938 1779.56 302.888 1770.71 295.308C1757.33 283.838 1758.2 284.338 1745.22 295.208C1736.44 302.558 1736.85 308.958 1745.46 316.818C1753.3 323.978 1753.46 324.988 1747.88 334.358C1744.58 339.898 1741.18 345.378 1737.22 351.878H1778.7ZM2868.83 351.878C2864.53 344.978 2861.13 339.708 2857.91 334.338C2852.33 325.018 2852.53 323.978 2860.4 316.878C2869.17 308.968 2869.58 302.938 2860.77 295.358C2847.3 283.778 2848.16 284.408 2835.28 295.158C2826.48 302.508 2826.86 308.938 2835.41 316.768C2843.27 323.968 2843.45 325.018 2837.92 334.298C2834.61 339.848 2831.19 345.338 2827.2 351.878H2868.83ZM2602.72 327.148C2601.81 328.218 2600.85 328.848 2600.61 329.678C2596.23 344.958 2591.52 360.168 2587.85 375.618C2586.61 380.858 2586.23 387.678 2588.57 392.158C2597.81 409.898 2603.08 428.698 2607.04 448.208C2615.14 407.648 2612.94 367.498 2602.71 327.148H2602.72ZM381.572 433.088C377.352 437.008 374.352 439.478 373.602 444.348C371.952 455.028 369.542 465.588 367.332 476.748C370.612 478.628 373.782 476.438 376.162 472.918C384.262 460.928 384.292 447.888 381.572 433.098V433.088ZM4523.32 476.758C4526.22 478.378 4529.06 476.568 4531.71 473.608C4539.06 465.378 4541.61 445.228 4535.82 432.828C4533.45 437.378 4530.81 440.768 4529.88 444.568C4527.34 455.048 4525.52 465.708 4523.32 476.758ZM1601.56 467.788C1598.48 477.158 1599.1 485.988 1601.38 494.598C1602.61 499.248 1605.01 503.728 1607.58 507.858C1609.63 511.138 1613.02 512.218 1615.67 510.668C1613.39 499.588 1610.87 489.378 1609.33 479.018C1608.56 473.828 1605.97 470.878 1601.57 467.788H1601.56ZM2692.03 468.088C2689.08 476.078 2688.58 483.848 2691.37 494.598C2692.58 499.258 2695 503.738 2697.57 507.858C2699.62 511.148 2703.01 512.218 2705.66 510.678C2703.38 499.588 2700.86 489.378 2699.32 479.008C2698.55 473.828 2695.94 470.888 2692.02 468.088H2692.03ZM67.6123 433.048C67.6123 442.798 66.8223 450.498 67.8823 457.948C68.6423 463.278 71.4823 468.488 74.1723 473.318C75.9923 476.588 79.3023 478.558 82.6023 476.568C80.2723 465.218 77.8223 454.318 75.8823 443.328C75.0923 438.868 72.2923 436.738 67.6123 433.058V433.048ZM4238.94 477.818C4236.27 465.338 4233.75 455.078 4231.98 444.698C4231.12 439.688 4229.15 436.388 4224.38 434.348C4222.45 444.488 4222.3 455.138 4224.71 462.418C4226.03 466.418 4227.97 470.468 4230.61 473.698C4232.3 475.758 4235.79 476.348 4238.94 477.818ZM1900.35 510.068C1906.29 510.648 1909.66 508.768 1912.58 501.488C1916.85 490.828 1916.58 479.828 1914.6 467.528C1910.55 470.728 1907.76 472.868 1906.97 477.328C1905.03 488.318 1902.58 499.208 1900.35 510.068ZM2990.07 510.538C2995.66 512.628 2998.27 508.378 3000.82 504.608C3006.34 496.478 3007.61 478.608 3003.54 468.468C2999.27 471.068 2997.54 474.638 2996.75 479.678C2995.17 489.748 2992.5 499.648 2990.07 510.528V510.538Z" fill="white"/>
<path d="M4468.27 892.838V1246.99C4474.54 1247.33 4480.43 1247.65 4487.03 1248.01V1287.87H4274.49V1248.29C4280.51 1247.83 4286.61 1247.36 4293.24 1246.85V892.008C4285.28 891.958 4277.43 892.088 4269.59 891.808C4265.19 891.648 4259.79 893.658 4257.05 888.258C4254.3 882.838 4259.17 879.688 4261.64 876.048C4267.06 868.068 4273.08 860.498 4278.31 852.408C4282.34 846.178 4287.32 843.698 4294.86 843.808C4321.84 844.198 4348.82 843.958 4375.8 843.958C4406.11 843.958 4436.43 844.168 4466.74 843.808C4474.22 843.718 4479.32 845.968 4483.43 852.218C4489.46 861.388 4496.29 870.018 4502.35 879.158C4504 881.638 4505.21 885.338 4504.68 888.108C4503.94 892.018 4499.76 891.838 4496.39 891.858C4489.06 891.888 4481.73 891.828 4474.4 891.938C4472.5 891.968 4470.6 892.478 4468.25 892.828L4468.27 892.838ZM4386.98 1076.1C4387.15 1104.62 4386.63 1132.26 4387.35 1160.03H4453.13V1076.1H4386.98ZM4308.39 1076.36V1159.87H4372.58V1076.36H4308.39ZM4453.26 892.598H4387.57V971.268H4453.26V892.598ZM4308.32 892.468V971.748C4329.91 971.698 4351.26 972.418 4372.47 971.268C4374.27 950.868 4373.56 899.718 4371.43 892.478H4308.32V892.468ZM4372.16 1062.18C4374.07 1047.75 4373.53 992.118 4371.53 985.188C4351.64 983.568 4315.16 984.258 4308.34 986.348V1062.18H4372.16ZM4387.5 1061.93H4453.37V985.378H4387.5V1061.93ZM4452.9 1247.15C4454.75 1233.7 4454.22 1182.02 4452.31 1175.08H4387.97C4386.11 1188.66 4386.65 1239.7 4388.77 1247.15H4452.91H4452.9ZM4372.19 1246.85C4374.06 1233.24 4373.51 1181.87 4371.53 1175C4351.9 1173.4 4315.24 1174.05 4308.34 1176.08V1246.84H4372.19V1246.85ZM4277.73 878.118H4484.14C4479.91 871.828 4476.75 866.398 4472.8 861.628C4471.17 859.668 4467.82 858.108 4465.25 858.098C4409.01 857.898 4352.77 857.908 4296.53 858.108C4293.99 858.108 4290.7 859.778 4289.07 861.748C4285.12 866.508 4281.94 871.908 4277.73 878.118ZM4287.5 1273.8C4311.62 1275.85 4467.46 1274.95 4474.49 1272.88V1261.04H4287.5V1273.81V1273.8Z" fill="white"/>
<path d="M136.592 891.868C127.152 891.868 118.172 891.878 109.192 891.868C105.812 891.868 101.812 891.928 101.042 887.898C100.562 885.388 101.552 882.038 103.032 879.828C109.342 870.448 116.382 861.548 122.542 852.078C126.682 845.718 131.892 843.798 139.272 843.828C187.902 844.088 236.542 843.958 285.172 843.958C294.502 843.958 303.832 844.148 313.152 843.888C318.672 843.738 322.652 845.628 325.822 850.178C332.852 860.278 340.302 870.088 347.272 880.228C351.912 886.968 349.422 891.528 340.992 891.778C331.712 892.058 322.412 891.838 312.442 891.838V1246.88C318.342 1247.25 324.462 1247.63 331.152 1248.05V1287.65H118.362V1248C124.522 1247.71 130.362 1247.43 136.042 1247.16C138.202 1239.6 138.792 905.868 136.592 891.848V891.868ZM152.252 1160.02H218.422V1076.68C204.962 1074.77 159.562 1075.35 152.252 1077.48V1160.02ZM218.612 892.548H152.242V971.168H218.612V892.548ZM233.772 1076.11V1160.03H297.132V1076.11H233.772ZM152.192 1061.83H218.582V985.258H152.192V1061.83ZM296.762 971.208C298.752 958.978 298.222 899.198 295.992 891.868C275.362 892.018 254.552 891.588 233.692 892.118V971.208H296.762ZM218.282 1246.8C220.202 1231.54 219.542 1181.63 217.432 1174.93H152.362V1246.8H218.282ZM233.072 984.988C233.022 1011.25 233.002 1036.62 233.072 1062H297.842C297.682 1036.03 298.302 1010.66 297.422 984.988H233.072ZM297.362 1174.99H233.732V1246.94H297.362V1174.99ZM328.292 878.558C324.602 872.948 321.652 868.998 319.292 864.728C316.362 859.438 312.252 857.718 306.252 857.798C284.292 858.098 262.322 857.918 240.362 857.918C208.412 857.918 176.472 857.878 144.522 857.978C141.292 857.988 136.852 857.698 135.072 859.558C129.992 864.848 125.342 870.788 122.902 878.558H328.302H328.292ZM131.512 1273.25C143.262 1275.39 311.892 1274.86 318.432 1272.82V1261.05H131.522V1273.25H131.512Z" fill="white"/>
<path d="M1670.54 925.848C1666.4 925.848 1662.83 925.848 1659.26 925.848C1652.93 925.828 1646.58 926.128 1640.28 925.698C1633.77 925.248 1631.68 920.998 1634.72 915.328C1635.19 914.458 1635.9 913.718 1636.48 912.908C1642.47 904.518 1648.8 896.338 1654.35 887.658C1658.94 880.498 1664.56 877.688 1673.3 877.748C1729.59 878.128 1785.89 877.938 1842.19 877.938C1843.52 877.938 1844.86 878.038 1846.19 877.938C1851.68 877.468 1855.68 879.558 1858.85 884.158C1865.84 894.288 1873.29 904.098 1880.26 914.238C1884.99 921.128 1882.62 925.388 1874.08 925.808C1869.43 926.038 1864.75 925.858 1860.09 925.868C1855.5 925.868 1850.91 925.868 1845.69 925.868V1280.88C1851.72 1281.29 1857.83 1281.7 1864.26 1282.14C1864.58 1284.52 1865.04 1286.44 1865.05 1288.37C1865.12 1299.28 1865.08 1310.19 1865.08 1321.72H1651.95V1282.17C1658.13 1281.72 1664.26 1281.28 1670.54 1280.83V925.848ZM1764.22 1193.95H1830.48V1109.92C1808.06 1109.51 1786.33 1109.59 1764.22 1109.8V1193.95ZM1764.25 1005.13H1830.62V926.508H1764.25V1005.13ZM1685.45 1193.89H1748.9C1750.78 1179.56 1750.21 1117.22 1748.25 1110.38H1685.45V1193.89ZM1830.84 1019.23H1764.44V1096.52C1786.98 1096.57 1808.75 1096.63 1830.84 1096.5V1019.23ZM1685.55 926.458V1005.66C1706.97 1005.81 1728.03 1006.04 1749.16 1005.5V926.458H1685.55ZM1764.17 1208.86V1281.55C1786.58 1281.19 1808.59 1282.21 1830.56 1280.93V1208.86H1764.17ZM1749.27 1096.07V1019.38H1685.56V1096.07H1749.27ZM1748.88 1281.09C1750.73 1267.15 1750.17 1215.93 1748.22 1209.02H1685.91C1684.07 1223.12 1684.64 1273.66 1686.75 1281.09H1748.88ZM1861.33 912.518C1857.68 906.978 1854.75 903.028 1852.35 898.778C1849.42 893.578 1845.43 891.598 1839.36 891.748C1823.73 892.128 1808.08 891.868 1792.44 891.868C1754.17 891.868 1715.9 891.818 1677.63 891.958C1674.16 891.968 1669.45 892.068 1667.49 894.168C1662.68 899.288 1658.15 905.028 1655.87 912.518H1861.33ZM1851.32 1294.9H1664.24C1664.06 1297.25 1663.76 1299.18 1663.81 1301.09C1663.87 1303.3 1664.23 1305.49 1664.47 1307.74H1851.32V1294.9Z" fill="white"/>
<path d="M2935.61 1281.1C2942.39 1281.42 2948.25 1281.69 2954.55 1281.99V1321.8H2741.85V1282.05C2748.03 1281.69 2753.9 1281.35 2760.42 1280.97V926.608C2757.33 926.368 2754.17 925.958 2751 925.898C2744.01 925.768 2736.99 926.138 2730.02 925.688C2724.05 925.308 2721.27 920.758 2724.45 916.048C2732.46 904.208 2740.94 892.678 2749.68 881.358C2751.2 879.388 2754.81 878.418 2757.57 878.128C2762.51 877.608 2767.55 877.948 2772.54 877.948C2825.84 877.948 2879.14 878.138 2932.43 877.758C2941.1 877.698 2946.82 880.278 2951.43 887.528C2957.13 896.498 2963.63 904.958 2969.87 913.588C2971.9 916.398 2974.17 919.558 2971.51 922.518C2969.82 924.408 2966.47 925.578 2963.82 925.688C2954.61 926.068 2945.37 925.838 2935.61 925.838V1281.1ZM2920.6 1110.3H2854.44V1193.83H2920.6V1110.3ZM2920.64 926.538H2854.27V1004.36C2865.19 1006.8 2913.85 1006.31 2920.64 1003.78V926.538ZM2838.81 1194.52C2840.77 1179.57 2840.2 1117.22 2838.24 1110.39H2775.44V1194.52H2838.81ZM2854.68 1019.07C2852.75 1033.47 2853.31 1089.25 2855.33 1096.08C2875.9 1097.7 2913.66 1097.01 2920.52 1094.92V1019.08H2854.69L2854.68 1019.07ZM2839.26 926.598H2775.6V1005.23H2839.26V926.598ZM2854.22 1280.88H2920.48V1209.15H2854.22V1280.88ZM2839.42 1019.27H2775C2775.12 1045.27 2774.78 1070.64 2775.2 1095.96H2839.42V1019.27ZM2775.92 1208.73C2774.03 1223.7 2774.64 1273.73 2776.69 1280.82H2839.84C2839.67 1256.4 2840.1 1232.69 2839.57 1208.73H2775.92ZM2951.35 912.528C2947.65 906.938 2944.69 902.988 2942.3 898.728C2939.36 893.488 2935.3 891.678 2929.27 891.768C2908.31 892.088 2887.34 891.888 2866.38 891.888C2833.43 891.888 2800.49 891.828 2767.54 891.988C2764.08 892.008 2759.37 892.148 2757.43 894.258C2752.68 899.388 2748.08 905.058 2745.95 912.528H2951.35ZM2941.26 1294.96H2754.5V1307.71H2941.26V1294.96Z" fill="white"/>
<path d="M157 1980V1700H217V1980H157ZM400.522 1985.2C381.589 1985.2 363.789 1981.47 347.122 1974C330.455 1966.4 315.789 1955.93 303.122 1942.6C290.589 1929.27 280.722 1913.87 273.522 1896.4C266.455 1878.8 262.922 1860 262.922 1840C262.922 1819.87 266.455 1801.07 273.522 1783.6C280.722 1766 290.589 1750.6 303.122 1737.4C315.789 1724.07 330.455 1713.67 347.122 1706.2C363.789 1698.6 381.589 1694.8 400.522 1694.8C423.189 1694.8 444.055 1700.07 463.122 1710.6C482.189 1721 497.989 1734.93 510.522 1752.4L456.922 1781.2C449.989 1773.2 441.655 1766.8 431.922 1762C422.189 1757.2 411.722 1754.8 400.522 1754.8C389.855 1754.8 379.789 1757 370.322 1761.4C360.989 1765.8 352.722 1771.93 345.522 1779.8C338.455 1787.53 332.922 1796.53 328.922 1806.8C324.922 1817.07 322.922 1828.13 322.922 1840C322.922 1851.73 324.922 1862.73 328.922 1873C332.922 1883.27 338.455 1892.33 345.522 1900.2C352.722 1907.93 360.989 1914.07 370.322 1918.6C379.789 1923 389.855 1925.2 400.522 1925.2C411.722 1925.2 422.189 1922.8 431.922 1918C441.655 1913.07 449.989 1906.53 456.922 1898.4L510.522 1927.6C497.989 1944.93 482.189 1958.87 463.122 1969.4C444.055 1979.93 423.189 1985.2 400.522 1985.2ZM636.1 1980L534.5 1700H598.1L674.9 1911.2L751.7 1700H815.3L713.7 1980H636.1ZM972.788 1985.2C953.188 1985.2 934.988 1981.4 918.188 1973.8C901.521 1966.2 886.988 1955.73 874.588 1942.4C862.188 1928.93 852.521 1913.4 845.587 1895.8C838.654 1878.2 835.188 1859.47 835.188 1839.6C835.188 1818.13 838.988 1798.6 846.588 1781C854.321 1763.4 864.721 1748.2 877.788 1735.4C890.988 1722.47 905.854 1712.53 922.388 1705.6C939.054 1698.67 956.254 1695.2 973.988 1695.2C993.454 1695.2 1012.65 1699.73 1031.59 1708.8C1050.52 1717.87 1067.59 1732.53 1082.79 1752.8L1029.19 1781.6C1021.05 1772.4 1012.12 1765.67 1002.39 1761.4C992.788 1757 983.054 1754.8 973.188 1754.8C963.188 1754.8 953.521 1756.87 944.188 1761C934.854 1765.13 926.521 1771 919.188 1778.6C911.854 1786.2 905.988 1795.27 901.588 1805.8C897.321 1816.33 895.188 1828 895.188 1840.8C895.188 1852.53 897.188 1863.53 901.188 1873.8C905.321 1884.07 910.988 1893.07 918.188 1900.8C925.388 1908.4 933.721 1914.4 943.188 1918.8C952.654 1923.07 962.788 1925.2 973.588 1925.2C979.721 1925.2 985.788 1924.4 991.788 1922.8C997.921 1921.07 1003.85 1918.53 1009.59 1915.2C1015.32 1911.87 1020.72 1907.6 1025.79 1902.4C1030.85 1897.2 1035.45 1891.07 1039.59 1884H1001.99V1832H1110.39C1111.45 1852.93 1108.59 1872.67 1101.79 1891.2C1095.12 1909.6 1085.45 1925.87 1072.79 1940C1060.12 1954.13 1045.25 1965.2 1028.19 1973.2C1011.12 1981.2 992.654 1985.2 972.788 1985.2ZM1150.75 1980V1700H1210.75V1980H1150.75ZM1264.67 1980V1700H1370.27C1385.61 1700 1399.47 1703.93 1411.87 1711.8C1424.41 1719.53 1434.34 1729.93 1441.67 1743C1449.01 1755.93 1452.67 1770.13 1452.67 1785.6C1452.67 1801.33 1448.87 1815.67 1441.27 1828.6C1433.81 1841.53 1423.81 1851.87 1411.27 1859.6C1398.74 1867.33 1385.07 1871.2 1370.27 1871.2H1324.67V1980H1264.67ZM1324.67 1811.2H1363.47C1368.81 1811.2 1373.67 1809.87 1378.07 1807.2C1382.47 1804.4 1386.01 1800.73 1388.67 1796.2C1391.34 1791.67 1392.67 1786.67 1392.67 1781.2C1392.67 1775.73 1391.34 1770.73 1388.67 1766.2C1386.01 1761.67 1382.47 1758.07 1378.07 1755.4C1373.67 1752.6 1368.81 1751.2 1363.47 1751.2H1324.67V1811.2ZM1580.89 1980V1955.2C1591.82 1945.07 1603.82 1934 1616.89 1922C1629.96 1909.87 1642.89 1897.4 1655.69 1884.6C1668.62 1871.67 1680.42 1858.93 1691.09 1846.4C1701.76 1833.73 1710.29 1821.8 1716.69 1810.6C1723.22 1799.27 1726.49 1789.27 1726.49 1780.6C1726.49 1770.07 1723.89 1760.47 1718.69 1751.8C1713.62 1743 1706.76 1736 1698.09 1730.8C1689.56 1725.47 1680.02 1722.8 1669.49 1722.8C1658.96 1722.8 1649.29 1725.47 1640.49 1730.8C1631.82 1736 1624.89 1743 1619.69 1751.8C1614.49 1760.47 1611.89 1770.07 1611.89 1780.6H1583.89C1583.89 1764.6 1587.76 1750.13 1595.49 1737.2C1603.36 1724.27 1613.76 1714 1626.69 1706.4C1639.62 1698.67 1653.89 1694.8 1669.49 1694.8C1685.09 1694.8 1699.29 1698.67 1712.09 1706.4C1725.02 1714.13 1735.29 1724.47 1742.89 1737.4C1750.62 1750.33 1754.49 1764.73 1754.49 1780.6C1754.49 1790.07 1751.96 1800.47 1746.89 1811.8C1741.96 1823 1735.22 1834.67 1726.69 1846.8C1718.16 1858.8 1708.56 1870.93 1697.89 1883.2C1687.22 1895.47 1676.09 1907.47 1664.49 1919.2C1652.89 1930.8 1641.62 1941.73 1630.69 1952H1758.69V1980H1580.89ZM1892.1 1985.2C1875.3 1985.2 1860.3 1981.47 1847.1 1974C1833.9 1966.4 1822.64 1955.93 1813.3 1942.6C1803.97 1929.27 1796.84 1913.87 1791.9 1896.4C1787.1 1878.8 1784.7 1860 1784.7 1840C1784.7 1820 1787.1 1801.2 1791.9 1783.6C1796.84 1766 1803.97 1750.6 1813.3 1737.4C1822.64 1724.07 1833.9 1713.67 1847.1 1706.2C1860.3 1698.6 1875.3 1694.8 1892.1 1694.8C1908.77 1694.8 1923.7 1698.6 1936.9 1706.2C1950.1 1713.67 1961.3 1724.07 1970.5 1737.4C1979.7 1750.6 1986.7 1766 1991.5 1783.6C1996.44 1801.2 1998.9 1820 1998.9 1840C1998.9 1860 1996.44 1878.8 1991.5 1896.4C1986.7 1913.87 1979.7 1929.27 1970.5 1942.6C1961.3 1955.93 1950.1 1966.4 1936.9 1974C1923.7 1981.47 1908.77 1985.2 1892.1 1985.2ZM1892.1 1957.2C1909.7 1957.2 1924.44 1951.8 1936.3 1941C1948.3 1930.2 1957.3 1915.93 1963.3 1898.2C1969.3 1880.33 1972.3 1860.93 1972.3 1840C1972.3 1817.87 1969.17 1798 1962.9 1780.4C1956.77 1762.67 1947.7 1748.67 1935.7 1738.4C1923.84 1728 1909.3 1722.8 1892.1 1722.8C1878.5 1722.8 1866.64 1725.93 1856.5 1732.2C1846.37 1738.47 1837.97 1747.07 1831.3 1758C1824.64 1768.93 1819.64 1781.47 1816.3 1795.6C1812.97 1809.6 1811.3 1824.4 1811.3 1840C1811.3 1861.07 1814.37 1880.53 1820.5 1898.4C1826.64 1916.13 1835.7 1930.4 1847.7 1941.2C1859.7 1951.87 1874.5 1957.2 1892.1 1957.2ZM2026.98 1980V1955.2C2037.92 1945.07 2049.92 1934 2062.98 1922C2076.05 1909.87 2088.98 1897.4 2101.78 1884.6C2114.72 1871.67 2126.52 1858.93 2137.18 1846.4C2147.85 1833.73 2156.38 1821.8 2162.78 1810.6C2169.32 1799.27 2172.58 1789.27 2172.58 1780.6C2172.58 1770.07 2169.98 1760.47 2164.78 1751.8C2159.72 1743 2152.85 1736 2144.18 1730.8C2135.65 1725.47 2126.12 1722.8 2115.58 1722.8C2105.05 1722.8 2095.38 1725.47 2086.58 1730.8C2077.92 1736 2070.98 1743 2065.78 1751.8C2060.58 1760.47 2057.98 1770.07 2057.98 1780.6H2029.98C2029.98 1764.6 2033.85 1750.13 2041.58 1737.2C2049.45 1724.27 2059.85 1714 2072.78 1706.4C2085.72 1698.67 2099.98 1694.8 2115.58 1694.8C2131.18 1694.8 2145.38 1698.67 2158.18 1706.4C2171.12 1714.13 2181.38 1724.47 2188.98 1737.4C2196.72 1750.33 2200.58 1764.73 2200.58 1780.6C2200.58 1790.07 2198.05 1800.47 2192.98 1811.8C2188.05 1823 2181.32 1834.67 2172.78 1846.8C2164.25 1858.8 2154.65 1870.93 2143.98 1883.2C2133.32 1895.47 2122.18 1907.47 2110.58 1919.2C2098.98 1930.8 2087.72 1941.73 2076.78 1952H2204.78V1980H2026.98ZM2353.64 1980V1901.4H2232.84V1873L2346.44 1700H2381.64V1873.4H2411.04V1901.4H2381.64V1980H2353.64ZM2266.04 1873L2353.64 1873.4L2353.04 1740L2266.04 1873Z" fill="white"/>
<rect x="2553" y="1590" width="30" height="500" fill="white"/>
<path d="M2710.5 1945V1735H2731.5V1945H2710.5ZM2776.42 1945V1735H2797.42V1945H2776.42ZM2842.34 1945V1735H2863.34V1945H2842.34ZM3062.6 1735V1756H2990.6V1945H2969.6V1756H2897.75V1735H3062.6ZM3083.64 1844.5H3179.64V1865.5H3083.64V1844.5ZM3215.77 1945V1735H3286.72C3296.92 1735 3306.17 1737.1 3314.47 1741.3C3322.87 1745.4 3329.52 1751.45 3334.42 1759.45C3339.42 1767.35 3341.92 1776.95 3341.92 1788.25C3341.92 1794.65 3340.77 1800.75 3338.47 1806.55C3336.17 1812.35 3333.17 1817.3 3329.47 1821.4C3325.77 1825.4 3321.77 1828 3317.47 1829.2C3323.67 1830.8 3329.02 1833.6 3333.52 1837.6C3338.02 1841.5 3341.72 1846.15 3344.62 1851.55C3347.52 1856.85 3349.62 1862.45 3350.92 1868.35C3352.32 1874.25 3353.02 1880.05 3353.02 1885.75C3353.02 1897.55 3350.42 1907.9 3345.22 1916.8C3340.12 1925.7 3333.27 1932.65 3324.67 1937.65C3316.07 1942.55 3306.52 1945 3296.02 1945H3215.77ZM3236.77 1926.25H3294.37C3301.67 1926.25 3308.27 1924.35 3314.17 1920.55C3320.17 1916.75 3324.92 1911.55 3328.42 1904.95C3332.02 1898.35 3333.82 1890.9 3333.82 1882.6C3333.82 1875.2 3332.02 1868.25 3328.42 1861.75C3324.92 1855.15 3320.17 1849.85 3314.17 1845.85C3308.27 1841.75 3301.67 1839.7 3294.37 1839.7H3236.77V1926.25ZM3236.77 1821.25H3284.92C3294.82 1821.25 3303.27 1818.4 3310.27 1812.7C3317.37 1806.9 3320.92 1798.7 3320.92 1788.1C3320.92 1776.5 3317.37 1767.9 3310.27 1762.3C3303.27 1756.6 3294.82 1753.75 3284.92 1753.75H3236.77V1821.25ZM3500.49 1795H3521.49V1945H3500.49L3499.74 1917.1C3494.84 1926.6 3487.99 1934.3 3479.19 1940.2C3470.39 1946 3459.89 1948.9 3447.69 1948.9C3436.69 1948.9 3426.39 1946.85 3416.79 1942.75C3407.19 1938.55 3398.74 1932.8 3391.44 1925.5C3384.14 1918.2 3378.44 1909.75 3374.34 1900.15C3370.24 1890.55 3368.19 1880.25 3368.19 1869.25C3368.19 1858.45 3370.19 1848.3 3374.19 1838.8C3378.29 1829.3 3383.89 1820.95 3390.99 1813.75C3398.19 1806.55 3406.49 1800.95 3415.89 1796.95C3425.39 1792.85 3435.54 1790.8 3446.34 1790.8C3458.84 1790.8 3469.74 1793.8 3479.04 1799.8C3488.34 1805.7 3495.74 1813.45 3501.24 1823.05L3500.49 1795ZM3447.24 1928.5C3457.94 1928.5 3467.14 1925.9 3474.84 1920.7C3482.54 1915.4 3488.44 1908.3 3492.54 1899.4C3496.74 1890.5 3498.84 1880.7 3498.84 1870C3498.84 1859 3496.74 1849.1 3492.54 1840.3C3488.34 1831.4 3482.39 1824.35 3474.69 1819.15C3466.99 1813.95 3457.84 1811.35 3447.24 1811.35C3436.64 1811.35 3426.94 1814 3418.14 1819.3C3409.44 1824.5 3402.49 1831.55 3397.29 1840.45C3392.19 1849.35 3389.64 1859.2 3389.64 1870C3389.64 1880.9 3392.29 1890.8 3397.59 1899.7C3402.89 1908.5 3409.89 1915.5 3418.59 1920.7C3427.39 1925.9 3436.94 1928.5 3447.24 1928.5ZM3682.31 1852.15V1945H3661.31V1856.35C3661.31 1848.15 3659.31 1840.7 3655.31 1834C3651.31 1827.3 3645.96 1821.95 3639.26 1817.95C3632.56 1813.95 3625.11 1811.95 3616.91 1811.95C3608.81 1811.95 3601.36 1813.95 3594.56 1817.95C3587.86 1821.95 3582.51 1827.3 3578.51 1834C3574.51 1840.7 3572.51 1848.15 3572.51 1856.35V1945H3551.51V1795H3572.51V1815.7C3577.81 1808.1 3584.71 1802.05 3593.21 1797.55C3601.71 1793.05 3610.96 1790.8 3620.96 1790.8C3632.26 1790.8 3642.56 1793.55 3651.86 1799.05C3661.16 1804.55 3668.56 1811.95 3674.06 1821.25C3679.56 1830.55 3682.31 1840.85 3682.31 1852.15ZM3828.67 1795H3849.67V1950.55C3849.67 1960.15 3847.57 1969.15 3843.37 1977.55C3839.27 1985.95 3833.67 1993.3 3826.57 1999.6C3819.57 2006 3811.57 2011 3802.57 2014.6C3793.57 2018.2 3784.22 2020 3774.52 2020C3764.12 2020 3754.07 2017.6 3744.37 2012.8C3734.67 2008.1 3726.22 2001.8 3719.02 1993.9C3711.92 1986 3706.87 1977.25 3703.87 1967.65L3723.22 1958.8C3725.12 1966.3 3728.67 1973.05 3733.87 1979.05C3739.17 1985.15 3745.37 1989.95 3752.47 1993.45C3759.67 1997.05 3767.02 1998.85 3774.52 1998.85C3781.42 1998.85 3788.07 1997.55 3794.47 1994.95C3800.97 1992.45 3806.77 1989 3811.87 1984.6C3817.07 1980.2 3821.17 1975.05 3824.17 1969.15C3827.17 1963.35 3828.67 1957.15 3828.67 1950.55V1917.4C3823.47 1926.8 3816.42 1934.4 3807.52 1940.2C3798.72 1946 3788.47 1948.9 3776.77 1948.9C3766.27 1948.9 3756.37 1946.85 3747.07 1942.75C3737.87 1938.65 3729.77 1933 3722.77 1925.8C3715.77 1918.5 3710.27 1910.1 3706.27 1900.6C3702.37 1891.1 3700.42 1880.9 3700.42 1870C3700.42 1859.1 3702.37 1848.9 3706.27 1839.4C3710.27 1829.8 3715.77 1821.4 3722.77 1814.2C3729.77 1806.9 3737.87 1801.2 3747.07 1797.1C3756.37 1793 3766.27 1790.95 3776.77 1790.95C3788.47 1790.95 3798.72 1793.85 3807.52 1799.65C3816.42 1805.35 3823.47 1812.95 3828.67 1822.45V1795ZM3776.92 1928.5C3787.32 1928.5 3796.27 1925.8 3803.77 1920.4C3811.37 1915 3817.22 1907.85 3821.32 1898.95C3825.42 1890.05 3827.47 1880.4 3827.47 1870C3827.47 1859.3 3825.37 1849.55 3821.17 1840.75C3817.07 1831.85 3811.22 1824.75 3803.62 1819.45C3796.02 1814.05 3787.12 1811.35 3776.92 1811.35C3766.72 1811.35 3757.42 1814 3749.02 1819.3C3740.72 1824.5 3734.12 1831.55 3729.22 1840.45C3724.32 1849.35 3721.87 1859.2 3721.87 1870C3721.87 1880.8 3724.37 1890.65 3729.37 1899.55C3734.37 1908.35 3741.02 1915.4 3749.32 1920.7C3757.72 1925.9 3766.92 1928.5 3776.92 1928.5ZM4007.62 1795H4028.62V1945H4007.62L4006.87 1917.1C4001.97 1926.6 3995.12 1934.3 3986.32 1940.2C3977.52 1946 3967.02 1948.9 3954.82 1948.9C3943.82 1948.9 3933.52 1946.85 3923.92 1942.75C3914.32 1938.55 3905.87 1932.8 3898.57 1925.5C3891.27 1918.2 3885.57 1909.75 3881.47 1900.15C3877.37 1890.55 3875.32 1880.25 3875.32 1869.25C3875.32 1858.45 3877.32 1848.3 3881.32 1838.8C3885.42 1829.3 3891.02 1820.95 3898.12 1813.75C3905.32 1806.55 3913.62 1800.95 3923.02 1796.95C3932.52 1792.85 3942.67 1790.8 3953.47 1790.8C3965.97 1790.8 3976.87 1793.8 3986.17 1799.8C3995.47 1805.7 4002.87 1813.45 4008.37 1823.05L4007.62 1795ZM3954.37 1928.5C3965.07 1928.5 3974.27 1925.9 3981.97 1920.7C3989.67 1915.4 3995.57 1908.3 3999.67 1899.4C4003.87 1890.5 4005.97 1880.7 4005.97 1870C4005.97 1859 4003.87 1849.1 3999.67 1840.3C3995.47 1831.4 3989.52 1824.35 3981.82 1819.15C3974.12 1813.95 3964.97 1811.35 3954.37 1811.35C3943.77 1811.35 3934.07 1814 3925.27 1819.3C3916.57 1824.5 3909.62 1831.55 3904.42 1840.45C3899.32 1849.35 3896.77 1859.2 3896.77 1870C3896.77 1880.9 3899.42 1890.8 3904.72 1899.7C3910.02 1908.5 3917.02 1915.5 3925.72 1920.7C3934.52 1925.9 3944.07 1928.5 3954.37 1928.5ZM4060.69 1945V1720H4081.69V1945H4060.69ZM4182.64 1948.9C4168.84 1948.9 4156.24 1945.35 4144.84 1938.25C4133.54 1931.15 4124.49 1921.65 4117.69 1909.75C4110.99 1897.75 4107.64 1884.5 4107.64 1870C4107.64 1859 4109.59 1848.75 4113.49 1839.25C4117.39 1829.65 4122.74 1821.25 4129.54 1814.05C4136.44 1806.75 4144.44 1801.05 4153.54 1796.95C4162.64 1792.85 4172.34 1790.8 4182.64 1790.8C4196.44 1790.8 4208.99 1794.35 4220.29 1801.45C4231.69 1808.55 4240.74 1818.1 4247.44 1830.1C4254.24 1842.1 4257.64 1855.4 4257.64 1870C4257.64 1880.9 4255.69 1891.1 4251.79 1900.6C4247.89 1910.1 4242.49 1918.5 4235.59 1925.8C4228.79 1933 4220.84 1938.65 4211.74 1942.75C4202.74 1946.85 4193.04 1948.9 4182.64 1948.9ZM4182.64 1927.9C4192.84 1927.9 4201.99 1925.25 4210.09 1919.95C4218.29 1914.55 4224.74 1907.45 4229.44 1898.65C4234.24 1889.85 4236.64 1880.3 4236.64 1870C4236.64 1859.5 4234.24 1849.85 4229.44 1841.05C4224.64 1832.15 4218.14 1825.05 4209.94 1819.75C4201.84 1814.45 4192.74 1811.8 4182.64 1811.8C4172.44 1811.8 4163.24 1814.5 4155.04 1819.9C4146.94 1825.2 4140.49 1832.25 4135.69 1841.05C4130.99 1849.85 4128.64 1859.5 4128.64 1870C4128.64 1880.8 4131.09 1890.6 4135.99 1899.4C4140.89 1908.1 4147.44 1915.05 4155.64 1920.25C4163.84 1925.35 4172.84 1927.9 4182.64 1927.9ZM4283.05 1945V1795H4304.05V1815.7C4309.35 1808.1 4316.25 1802.05 4324.75 1797.55C4333.25 1793.05 4342.5 1790.8 4352.5 1790.8C4358.3 1790.8 4363.9 1791.55 4369.3 1793.05L4360.75 1813.9C4356.55 1812.6 4352.45 1811.95 4348.45 1811.95C4340.35 1811.95 4332.9 1813.95 4326.1 1817.95C4319.4 1821.95 4314.05 1827.3 4310.05 1834C4306.05 1840.7 4304.05 1848.15 4304.05 1856.35V1945H4283.05ZM4446.32 1948.9C4432.52 1948.9 4419.92 1945.35 4408.52 1938.25C4397.22 1931.15 4388.17 1921.65 4381.37 1909.75C4374.67 1897.75 4371.32 1884.5 4371.32 1870C4371.32 1859 4373.27 1848.75 4377.17 1839.25C4381.07 1829.65 4386.42 1821.25 4393.22 1814.05C4400.12 1806.75 4408.12 1801.05 4417.22 1796.95C4426.32 1792.85 4436.02 1790.8 4446.32 1790.8C4457.42 1790.8 4467.62 1793 4476.92 1797.4C4486.32 1801.8 4494.37 1807.95 4501.07 1815.85C4507.87 1823.75 4512.97 1833 4516.37 1843.6C4519.87 1854.2 4521.32 1865.65 4520.72 1877.95H4393.52C4394.72 1887.45 4397.72 1895.95 4402.52 1903.45C4407.42 1910.95 4413.62 1916.9 4421.12 1921.3C4428.72 1925.6 4437.12 1927.8 4446.32 1927.9C4456.32 1927.9 4465.32 1925.3 4473.32 1920.1C4481.42 1914.9 4487.92 1907.75 4492.82 1898.65L4514.12 1903.6C4508.12 1916.9 4499.07 1927.8 4486.97 1936.3C4474.87 1944.7 4461.32 1948.9 4446.32 1948.9ZM4392.92 1861H4499.57C4498.87 1851.7 4496.02 1843.2 4491.02 1835.5C4486.12 1827.7 4479.77 1821.5 4471.97 1816.9C4464.17 1812.2 4455.62 1809.85 4446.32 1809.85C4437.02 1809.85 4428.52 1812.15 4420.82 1816.75C4413.12 1821.25 4406.82 1827.4 4401.92 1835.2C4397.02 1842.9 4394.02 1851.5 4392.92 1861Z" fill="white"/>
</svg>
